<svg width="22" height="122" viewBox="0 0 22 122" fill="none" xmlns="http://www.w3.org/2000/svg">
<path d="M0.0263672 3.47679C0.0263672 1.69219 1.47307 0.245483 3.25767 0.245483H4.39753C5.75125 0.245483 6.96148 1.08931 7.42954 2.35955L7.57688 2.75941C8.61554 5.57816 12.6023 5.57815 13.6409 2.75941L13.7883 2.35954C14.2563 1.08931 15.4665 0.245483 16.8203 0.245483H18.1217C19.9063 0.245483 21.353 1.69219 21.353 3.47679V117.865C21.353 119.65 19.9063 121.096 18.1217 121.096H3.25768C1.47308 121.096 0.0263672 119.65 0.0263672 117.865V3.47679Z" fill="#84E8F4"/>
<mask id="mask0_0_1203" style="mask-type:alpha" maskUnits="userSpaceOnUse" x="0" y="0" width="22" height="122">
<path d="M0.0263672 3.47679C0.0263672 1.69219 1.47307 0.245483 3.25767 0.245483H4.39753C5.75125 0.245483 6.96148 1.08931 7.42954 2.35955L7.57688 2.75941C8.61554 5.57816 12.6023 5.57815 13.6409 2.75941L13.7883 2.35954C14.2563 1.08931 15.4665 0.245483 16.8203 0.245483H18.1217C19.9063 0.245483 21.353 1.69219 21.353 3.47679V117.865C21.353 119.65 19.9063 121.096 18.1217 121.096H3.25768C1.47308 121.096 0.0263672 119.65 0.0263672 117.865V3.47679Z" fill="white"/>
</mask>
<g mask="url(#mask0_0_1203)">
<g opacity="0.2">
<path d="M-37.3914 202.38C-37.7869 202.126 -38.1955 201.865 -38.5747 201.583C-39.1892 201.122 -40.6079 199.885 -40.5 198.298C-40.4215 197.159 -39.6011 196.23 -38.6956 195.301L-28.4839 184.828C-27.6209 183.943 -26.5488 182.845 -25.2413 182.529C-23.499 182.112 -21.711 183.157 -20.5146 184.102C-18.2885 185.869 -16.5365 188.218 -15.4447 190.893C-15.2551 191.354 -15.0818 191.839 -14.9119 192.307C-14.3954 193.745 -13.8593 195.233 -12.8231 196.379C-12.3491 196.901 -11.7869 197.335 -11.2443 197.752C-10.4794 198.342 -9.75698 198.895 -9.27319 199.678C-8.77307 200.485 -8.54752 201.512 -8.33178 202.509C-8.00817 203.997 -7.67148 205.54 -6.38685 206.357C-5.17085 207.133 -3.40245 206.913 -1.66018 205.77C-1.25485 205.506 -0.862602 205.211 -0.480156 204.926C0.438377 204.238 1.3079 203.59 2.33756 203.285C2.87365 203.126 3.42932 203.068 4.01444 203.007C4.63224 202.943 5.27294 202.878 5.88747 202.678C7.18192 202.258 8.31292 200.936 7.93374 199.63C7.74088 198.969 7.23749 198.505 6.75043 198.054C6.2307 197.576 5.74038 197.121 5.72403 196.504C5.70115 195.718 6.51508 195.104 7.33228 194.843C7.55782 194.772 7.78663 194.711 8.01871 194.653C8.70515 194.477 9.41777 194.294 9.97674 193.796C10.9574 192.928 11.2058 191.276 10.637 189.378C10.539 189.052 10.4311 188.73 10.32 188.405C9.94405 187.303 9.59101 186.259 9.7283 185.184C9.94405 183.513 11.3496 182.245 12.4937 181.475C12.935 181.177 13.3926 180.892 13.8306 180.614C14.5661 180.149 15.3277 179.671 16.0501 179.129C17.1942 178.268 17.4786 177.02 17.6911 175.705C18.1749 172.708 17.5734 169.677 16.9948 166.744L16.9164 166.347C16.0763 162.075 15.6121 157.675 17.9036 154.451C18.5606 153.528 19.4497 152.691 20.3127 151.884C22.0157 150.287 23.7743 148.639 23.7482 146.253C23.7253 144.208 22.3655 142.669 21.0481 141.184C20.3094 140.35 19.5478 139.489 19.0248 138.546C18.1356 136.943 17.9264 135.115 17.7041 133.183C17.544 131.773 17.3773 130.315 16.9196 128.955C15.0826 123.493 9.22491 121.001 4.35768 120.489C1.59228 120.198 -1.22543 120.357 -3.95161 120.513C-6.32803 120.649 -8.78614 120.788 -11.1887 120.625C-13.9541 120.439 -16.7293 119.845 -19.4097 119.272C-21.7992 118.764 -24.2672 118.235 -26.7384 117.991C-33.07 117.367 -38.4341 119.076 -41.461 122.686C-43.4092 125.016 -44.4029 128.847 -42.4057 131.359C-41.5591 132.427 -40.3398 133.037 -39.1598 133.624C-37.9699 134.22 -36.8455 134.783 -36.0675 135.773C-34.5965 137.651 -34.8875 140.452 -35.2765 142.93L-37.241 155.413C-37.5483 157.366 -37.8948 159.082 -39.0388 160.251C-40.853 162.113 -43.9453 161.757 -46.2008 161.496C-49.5284 161.113 -53.0522 160.913 -56.285 162.035C-59.4492 163.133 -61.8191 165.479 -62.7964 168.466C-63.2639 169.9 -63.2508 171.094 -63.2345 172.474C-63.2312 172.782 -63.2279 173.101 -63.2279 173.433C-63.2344 174.538 -63.3456 175.654 -63.4567 176.728C-63.5679 177.807 -63.679 178.922 -63.6855 180.027C-63.6921 182.156 -65.2448 184.035 -66.5457 185.235C-66.938 185.598 -67.3531 185.954 -67.7585 186.303C-69.2686 187.601 -70.8279 188.941 -71.5993 190.839C-72.0635 191.978 -72.1942 193.216 -72.3184 194.413C-72.4296 195.47 -72.544 196.565 -72.8937 197.562C-73.1585 198.322 -73.554 199.04 -73.9332 199.739C-74.4399 200.668 -74.9662 201.627 -75.2179 202.719C-75.6493 204.587 -75.3421 206.791 -74.3287 209.086C-73.7698 210.351 -73.0572 211.554 -72.3675 212.714C-71.8575 213.575 -71.3312 214.463 -70.8703 215.368C-70.3768 216.345 -69.9453 217.375 -69.5236 218.376C-68.932 219.789 -68.3174 221.254 -67.5166 222.593C-66.2221 224.76 -64.555 226.373 -62.6918 227.258C-61.4693 227.838 -60.0997 228.136 -58.6974 228.136C-57.9553 228.136 -57.2035 228.052 -56.4615 227.885C-54.1701 227.37 -52.1892 226.014 -50.2769 224.705C-49.6853 224.302 -49.074 223.881 -48.4693 223.502C-47.4298 222.844 -46.3969 222.142 -45.3999 221.464C-44.1382 220.603 -42.8372 219.715 -41.5035 218.915C-38.9342 217.372 -36.3421 215.572 -34.8025 212.9C-33.325 210.334 -32.9818 206.475 -35.1849 204.068C-35.8256 203.383 -36.6199 202.871 -37.3914 202.38ZM-35.2209 212.656C-36.7049 215.229 -39.235 216.982 -41.7487 218.491C-43.0954 219.298 -44.4029 220.193 -45.6712 221.057C-46.6649 221.735 -47.6913 222.434 -48.7243 223.088C-49.3355 223.475 -49.9501 223.895 -50.545 224.302C-52.4213 225.587 -54.3597 226.912 -56.5628 227.407C-58.6091 227.868 -60.7142 227.658 -62.4859 226.814C-64.2608 225.97 -65.856 224.424 -67.0982 222.342C-67.8794 221.034 -68.4841 219.589 -69.0725 218.189C-69.4942 217.182 -69.9322 216.138 -70.4323 215.148C-70.8965 214.229 -71.4293 213.331 -71.9458 212.463C-72.6257 211.313 -73.3318 210.127 -73.8776 208.889C-74.551 207.36 -75.2505 205.075 -74.7341 202.851C-74.4987 201.831 -74.0117 200.942 -73.4985 200.003C-73.1062 199.288 -72.7041 198.549 -72.423 197.749C-72.0537 196.694 -71.936 195.569 -71.8216 194.48C-71.6941 193.267 -71.5731 192.121 -71.1384 191.049C-70.4127 189.266 -68.8993 187.964 -67.4348 186.706C-67.0262 186.357 -66.6078 185.994 -66.209 185.628C-64.8329 184.36 -63.1919 182.36 -63.1854 180.044C-63.1821 178.966 -63.0677 177.864 -62.9599 176.796C-62.8487 175.708 -62.7343 174.579 -62.7278 173.45C-62.7278 173.114 -62.7311 172.792 -62.7343 172.484C-62.7507 171.148 -62.7637 169.995 -62.3225 168.646C-61.3974 165.808 -59.1386 163.581 -56.1216 162.533C-54.3727 161.926 -52.5292 161.716 -50.6692 161.716C-49.1884 161.716 -47.6979 161.848 -46.2465 162.014C-43.893 162.286 -40.6667 162.659 -38.6858 160.628C-37.4404 159.35 -37.071 157.553 -36.7507 155.512L-34.7861 143.028C-34.3775 140.442 -34.0801 137.509 -35.6785 135.468C-36.5251 134.386 -37.7542 133.773 -38.9375 133.179C-40.1208 132.586 -41.2387 132.03 -42.0167 131.047C-43.844 128.748 -42.8993 125.199 -41.0818 123.029C-38.1628 119.544 -32.9491 117.892 -26.7776 118.506C-24.3325 118.747 -21.8777 119.272 -19.5012 119.781C-16.8045 120.357 -14.0129 120.954 -11.2116 121.144C-8.7796 121.31 -6.3084 121.168 -3.91564 121.032C-1.20908 120.879 1.589 120.72 4.31519 121.008C9.03205 121.503 14.7034 123.9 16.462 129.135C16.9 130.44 17.0635 131.871 17.2236 133.254C17.4427 135.153 17.6649 137.119 18.6063 138.814C19.1555 139.808 19.9367 140.689 20.6951 141.543C22.0059 143.025 23.2448 144.425 23.2676 146.273C23.2905 148.429 21.6888 149.931 19.9923 151.521C19.113 152.345 18.201 153.199 17.5178 154.162C15.1153 157.546 15.5827 162.072 16.4457 166.463L16.5241 166.859C17.0929 169.744 17.6845 172.728 17.2171 175.633C17.0144 176.884 16.7693 177.98 15.7723 178.729C15.0695 179.258 14.3144 179.732 13.5855 180.19C13.1409 180.468 12.6833 180.756 12.2355 181.058C10.4474 182.262 9.44064 183.628 9.25105 185.126C9.09742 186.323 9.48968 187.473 9.86559 188.585C9.97346 188.903 10.0813 189.222 10.1761 189.537C10.3657 190.175 10.892 192.334 9.66293 193.419C9.18895 193.84 8.56461 193.999 7.90431 194.168C7.66569 194.229 7.4238 194.294 7.19172 194.365C6.26992 194.66 5.20755 195.403 5.24023 196.528C5.26311 197.366 5.85805 197.911 6.43336 198.44C6.89098 198.864 7.32246 199.261 7.4761 199.783C7.77029 200.797 6.82235 201.851 5.75019 202.197C5.18468 202.38 4.59628 202.441 3.97521 202.505C3.39337 202.566 2.79192 202.627 2.21008 202.8C1.09869 203.133 0.153999 203.838 -0.757996 204.519C-1.1339 204.801 -1.52288 205.089 -1.91187 205.346C-2.50352 205.736 -4.55959 206.926 -6.12207 205.93C-7.22693 205.224 -7.52766 203.855 -7.84473 202.404C-8.07028 201.366 -8.30564 200.295 -8.85153 199.41C-9.38434 198.549 -10.1754 197.942 -10.9435 197.352C-11.4698 196.949 -12.0124 196.528 -12.457 196.037C-13.4246 194.965 -13.9443 193.524 -14.4444 192.134C-14.6144 191.66 -14.7909 191.171 -14.9838 190.7C-16.1083 187.944 -17.9159 185.523 -20.2073 183.702C-22.0411 182.248 -23.8161 181.668 -25.3426 182.038C-26.7874 182.384 -27.9151 183.54 -28.8206 184.469L-39.0323 194.941C-40.0097 195.942 -40.8922 196.949 -40.9805 198.264C-41.0688 199.559 -40.2941 200.919 -38.8525 201.997C-38.4603 202.288 -38.0451 202.556 -37.6431 202.814C-36.8651 203.312 -36.1329 203.78 -35.5347 204.434C-33.5048 206.658 -33.8382 210.252 -35.2209 212.656Z" fill="#51459E"/>
<path d="M-29.5005 209.042C-28.8565 207.591 -27.9576 204.827 -29.1474 202.62C-29.7228 201.556 -30.7034 200.793 -31.6546 200.057C-32.8575 199.122 -33.9951 198.24 -34.2239 196.84C-34.554 194.795 -32.6385 193.202 -32.0436 192.761C-31.5271 192.382 -30.9616 192.039 -30.4157 191.71C-29.5266 191.175 -28.6081 190.622 -27.8432 189.863C-27.5 189.52 -27.1862 189.137 -26.8854 188.764C-26.3199 188.069 -25.7871 187.415 -25.0647 187.011C-23.2603 186.004 -20.9787 187.086 -19.8935 188.659C-18.8932 190.113 -18.4781 192.151 -18.6579 194.721C-18.72 195.616 -18.8409 196.528 -18.9619 197.409C-19.1286 198.644 -19.2986 199.922 -19.3117 201.196C-19.3541 205.265 -17.2883 209.896 -13.2578 210.872C-10.7703 211.476 -8.18468 210.493 -6.10572 209.703L4.7532 205.577C6.67525 204.844 8.4731 204.048 9.36548 202.336C9.88522 201.335 9.98655 200.183 10.0813 199.067C10.1892 197.826 10.2905 196.657 10.9279 195.711C11.5065 194.853 12.4773 194.304 13.4122 193.775C14.5955 193.104 15.8181 192.412 16.3149 191.076C16.7725 189.842 16.4162 188.567 16.0698 187.333C15.8246 186.459 15.5696 185.553 15.6154 184.679C15.7004 183.085 16.7137 181.841 17.7826 180.522C18.5148 179.62 19.2699 178.691 19.7308 177.62C20.7997 175.138 20.146 172.44 19.5118 169.829C19.1392 168.3 18.7567 166.72 18.7175 165.188C18.6423 162.282 19.9629 159.282 22.1628 157.356C22.676 156.905 23.2252 156.468 23.758 156.047C25.6016 154.579 27.5105 153.06 28.4585 150.657C29.7889 147.287 28.5958 143.513 27.3602 140.943C26.8208 139.818 26.1965 138.716 25.595 137.651C24.6177 135.926 23.6076 134.142 22.9506 132.24C22.5093 130.965 22.2151 129.603 21.9307 128.284C21.4633 126.124 20.9795 123.893 19.842 121.967C17.7205 118.37 13.3861 116.082 7.95009 115.685C4.07983 115.4 0.173615 115.983 -3.60511 116.546C-6.52741 116.984 -9.54777 117.431 -12.5289 117.479C-15.2878 117.523 -18.0858 117.218 -20.7924 116.926C-23.6689 116.614 -26.6435 116.292 -29.5887 116.38C-36.414 116.584 -41.9873 119.408 -44.501 123.937C-46.1125 126.843 -46.5897 130.63 -45.8412 134.603C-45.4228 136.834 -44.6382 139.157 -43.3798 141.916C-42.9417 142.879 -42.3991 143.798 -41.8729 144.69C-41.2322 145.778 -40.5686 146.9 -40.111 148.08C-39.3951 149.917 -39.3559 151.796 -39.9998 153.237C-41.3727 156.301 -45.2234 156.864 -46.8153 156.963C-47.7501 157.02 -48.7112 157.007 -49.6395 156.997C-51.4766 156.973 -53.3757 156.949 -55.1866 157.461C-57.9455 158.244 -60.2565 160.214 -62.293 161.953C-64.1235 163.516 -66.4019 165.459 -67.1766 168.185C-67.4904 169.29 -67.5296 170.446 -67.5688 171.565C-67.6015 172.48 -67.6342 173.426 -67.8173 174.321C-68.1311 175.84 -68.8862 177.25 -69.6151 178.613C-69.821 179 -70.0302 179.386 -70.2264 179.776C-72.0732 183.414 -73.1323 187.262 -73.286 190.907C-73.3775 193.046 -73.7272 195.179 -74.332 197.24C-74.6229 198.233 -75.0772 199.2 -75.5153 200.132C-75.9729 201.102 -76.4436 202.105 -76.7378 203.153C-77.7152 206.631 -76.339 210.442 -75.3355 213.222C-75.1753 213.666 -75.0151 214.117 -74.8517 214.571C-73.2925 218.942 -71.681 223.461 -68.8633 226.997C-66.3627 230.133 -63.0154 232.174 -58.3247 233.415C-57.7102 233.578 -57.0793 233.659 -56.4288 233.659C-54.8402 233.659 -53.1306 233.174 -51.251 232.198C-48.9956 231.025 -47.0049 229.224 -45.0828 227.485C-44.4519 226.916 -43.8014 226.326 -43.164 225.78C-40.2123 223.257 -37.3292 220.579 -34.5867 217.816C-33.4721 216.694 -32.4064 215.575 -31.586 214.246C-30.978 213.259 -30.6086 212.147 -30.249 211.073C-30.0268 210.398 -29.7914 209.693 -29.5005 209.042ZM-32.0011 213.975C-32.7921 215.26 -33.8382 216.355 -34.9299 217.453C-37.6627 220.206 -40.5392 222.878 -43.4778 225.39C-44.1218 225.939 -44.7755 226.533 -45.4097 227.105C-47.3089 228.824 -49.2734 230.604 -51.4733 231.747C-54.0131 233.069 -56.2163 233.452 -58.207 232.927C-62.7899 231.713 -66.0554 229.73 -68.4874 226.678C-71.2528 223.21 -72.8512 218.731 -74.3941 214.402C-74.5575 213.948 -74.7177 213.497 -74.8779 213.049C-76.1461 209.53 -77.1268 206.367 -76.2671 203.298C-75.986 202.295 -75.5218 201.312 -75.074 200.359C-74.6262 199.41 -74.1653 198.427 -73.8613 197.392C-73.2467 195.29 -72.8872 193.117 -72.7956 190.934C-72.6453 187.364 -71.6058 183.587 -69.7916 180.017C-69.5955 179.63 -69.3895 179.247 -69.1836 178.864C-68.4351 177.471 -67.6636 176.027 -67.3335 174.433C-67.1406 173.494 -67.1047 172.524 -67.072 171.589C-67.0328 170.5 -66.9935 169.375 -66.6993 168.334C-65.9704 165.757 -63.7542 163.869 -61.9759 162.35C-59.9754 160.645 -57.7102 158.712 -55.0526 157.956C-53.3071 157.461 -51.4439 157.485 -49.6395 157.508C-48.7014 157.522 -47.7305 157.532 -46.7793 157.475C-45.0992 157.369 -41.0328 156.769 -39.5487 153.454C-38.8459 151.887 -38.8819 149.856 -39.6501 147.89C-40.124 146.67 -40.7974 145.53 -41.4479 144.425C-41.9676 143.544 -42.5037 142.635 -42.9319 141.699C-44.1741 138.98 -44.9422 136.695 -45.3541 134.508C-46.0798 130.657 -45.6222 126.992 -44.0695 124.195C-41.6408 119.821 -36.2211 117.089 -29.5659 116.892C-26.6534 116.804 -23.6951 117.126 -20.8349 117.435C-18.112 117.73 -15.3008 118.035 -12.5126 117.991C-9.49874 117.943 -6.46204 117.492 -3.52339 117.055C0.225914 116.495 4.10598 115.916 7.9272 116.197C13.1998 116.58 17.3969 118.784 19.4334 122.239C20.5284 124.093 21.0024 126.283 21.46 128.402C21.7477 129.735 22.0484 131.115 22.4995 132.417C23.1729 134.363 24.196 136.166 25.1832 137.912C25.7813 138.97 26.3992 140.062 26.932 141.174C28.1218 143.652 29.2724 147.276 28.0139 150.47C27.115 152.748 25.2616 154.223 23.4703 155.651C22.9342 156.078 22.3818 156.518 21.8588 156.976C19.5118 159.027 18.1585 162.106 18.2402 165.211C18.2827 166.798 18.6717 168.408 19.0509 169.965C19.6916 172.606 20.2963 175.101 19.2961 177.423C18.8613 178.43 18.1291 179.332 17.4198 180.207C16.3443 181.529 15.233 182.899 15.1382 184.662C15.0859 185.621 15.3539 186.567 15.6089 187.486C15.9488 188.693 16.2659 189.832 15.8671 190.903C15.4356 192.063 14.3438 192.683 13.1867 193.338C12.1995 193.897 11.1796 194.473 10.5357 195.429C9.8231 196.484 9.71197 197.779 9.6041 199.03C9.51257 200.095 9.41776 201.193 8.94379 202.105C8.13313 203.661 6.42355 204.414 4.5963 205.112L-6.26262 209.238C-8.27946 210.005 -10.7866 210.957 -13.1336 210.388C-16.8731 209.479 -18.8507 204.983 -18.8115 201.21C-18.7984 199.969 -18.6285 198.708 -18.465 197.487C-18.3441 196.599 -18.2231 195.68 -18.1578 194.765C-17.9682 192.076 -18.416 189.927 -19.4849 188.371C-20.6878 186.621 -23.2473 185.435 -25.287 186.57C-26.0911 187.018 -26.6828 187.744 -27.2515 188.445C-27.5457 188.805 -27.8497 189.181 -28.1733 189.503C-28.8957 190.218 -29.7881 190.758 -30.6511 191.276C-31.2068 191.612 -31.7821 191.958 -32.3149 192.351C-34.0604 193.639 -34.9496 195.351 -34.6946 196.928C-34.4364 198.528 -33.1648 199.515 -31.9357 200.471C-31.027 201.176 -30.0889 201.905 -29.5626 202.875C-28.4381 204.96 -29.4482 207.736 -29.9352 208.835C-30.236 209.513 -30.4713 210.225 -30.7034 210.917C-31.063 211.957 -31.4225 213.039 -32.0011 213.975Z" fill="#51459E"/>
<path d="M-30.1085 220.267C-27.5752 218.521 -26.4245 215.087 -26.2055 212.676C-26.0552 210.998 -25.7806 209.164 -24.46 208.621C-23.329 208.16 -22.0738 208.93 -20.8807 209.757C-17.0562 212.419 -13.843 213.615 -10.767 213.527C-7.64859 213.436 -4.85051 212.032 -2.14722 210.676C-0.699135 209.95 0.794708 209.201 2.31142 208.669C3.23976 208.343 4.27924 208.093 5.37756 207.828C8.47964 207.082 11.9968 206.235 13.6607 203.312C14.1608 202.434 14.4321 201.444 14.6903 200.488C14.9028 199.705 15.1251 198.895 15.4716 198.169C15.8933 197.281 16.5209 196.477 17.1256 195.704C17.812 194.823 18.5246 193.914 18.9692 192.846C19.6131 191.304 19.6328 189.602 19.6524 187.957C19.6687 186.628 19.6851 185.252 20.0348 183.987C20.3748 182.76 21.0318 181.624 21.6692 180.526C22.2739 179.485 22.8983 178.407 23.2709 177.223C24.0947 174.626 23.6403 171.857 23.2056 169.175L23.0977 168.504C22.6368 165.612 22.3982 162.604 23.7743 160.197C24.6471 158.668 25.9808 157.62 27.3896 156.512C28.4814 155.651 29.6124 154.762 30.4917 153.637C32.0542 151.637 33.5219 147.928 33.1558 144.995C32.855 142.564 31.6391 140.435 30.6126 138.852C30.2106 138.235 29.7856 137.621 29.3738 137.024C28.5664 135.858 27.7296 134.651 27.0562 133.376C25.9906 131.355 25.3041 129.104 24.6406 126.928C24.5 126.47 24.3627 126.016 24.2189 125.561C23.3919 122.92 22.3818 120.174 20.6167 117.977C16.2071 112.478 7.83242 112.675 1.03007 113.458C0.0232773 113.573 -0.986786 113.705 -1.99684 113.838C-6.02399 114.363 -10.1884 114.902 -14.2581 114.424C-16.7424 114.133 -19.2136 113.454 -21.6063 112.797C-22.3026 112.607 -22.9988 112.414 -23.6984 112.231C-29.1736 110.8 -42.4351 108.711 -47.3448 120.188C-48.6883 123.327 -49.0806 127.087 -48.4856 131.067C-48.0149 134.203 -46.9493 137.516 -45.1319 141.486C-45.0142 141.74 -44.8998 141.991 -44.7821 142.245C-44.0303 143.862 -43.2523 145.537 -42.8862 147.297C-42.2749 150.243 -42.7293 152.203 -44.3245 153.464C-45.9164 154.722 -48.064 155.095 -49.9566 155.291C-50.764 155.376 -51.5975 155.424 -52.4016 155.471C-54.3825 155.586 -56.4288 155.708 -58.3476 156.366C-62.8128 157.899 -65.7612 161.828 -68.8894 166.425L-76.1854 177.152C-76.9307 178.247 -77.8557 179.61 -77.9178 181.17C-77.9767 182.628 -77.287 183.919 -76.6234 185.17C-76.375 185.638 -76.1167 186.12 -75.9075 186.598C-74.2078 190.473 -75.3976 193.558 -76.777 197.128C-76.9111 197.474 -77.0451 197.823 -77.1791 198.179L-77.5975 199.281C-79.0554 203.109 -80.5623 207.069 -80.8107 211.354C-81.0624 215.707 -80.2779 220.03 -78.5978 223.532C-77.251 226.339 -74.0476 228.991 -72.2563 230.32C-66.6634 234.476 -59.7335 236.093 -53.6797 237.287L-52.9443 237.429C-50.7509 237.85 -48.4497 238.243 -46.1321 238.243C-45.2724 238.243 -44.4094 238.189 -43.5498 238.063C-42.373 237.89 -39.5095 237.328 -38.2968 235.822C-37.3325 234.622 -37.5384 232.757 -37.7215 231.113C-37.7999 230.404 -37.8751 229.737 -37.8522 229.181C-37.7607 226.987 -36.7834 224.851 -35.2438 223.471C-34.3546 222.674 -33.2792 222.088 -32.243 221.518C-31.5271 221.139 -30.7917 220.739 -30.1085 220.267ZM-35.5576 223.098C-37.1985 224.57 -38.238 226.838 -38.336 229.17C-38.3622 229.767 -38.2837 230.455 -38.202 231.181C-38.0288 232.723 -37.8359 234.476 -38.6662 235.507C-39.7972 236.914 -42.7358 237.443 -43.6086 237.568C-46.7172 238.026 -49.8749 237.507 -52.8462 236.938L-53.5784 236.795C-59.5799 235.615 -66.4477 234.012 -71.9588 229.916C-73.7142 228.614 -76.849 226.021 -78.1467 223.315C-79.7876 219.891 -80.5558 215.656 -80.3106 211.391C-80.0687 207.184 -78.6403 203.438 -77.1301 199.474L-76.7117 198.372C-76.5776 198.02 -76.4436 197.671 -76.3096 197.325C-74.891 193.646 -73.6619 190.47 -75.4499 186.394C-75.6689 185.896 -75.9304 185.404 -76.1821 184.93C-76.8457 183.685 -77.47 182.512 -77.4177 181.197C-77.3622 179.787 -76.4796 178.491 -75.7735 177.451L-68.4776 166.724C-65.4016 162.201 -62.5055 158.339 -58.1841 156.854C-56.3242 156.217 -54.3106 156.098 -52.3624 155.983C-51.5518 155.935 -50.7149 155.885 -49.8977 155.8C-47.9365 155.596 -45.7072 155.207 -44.0172 153.871C-41.6996 152.04 -41.9807 149.182 -42.3959 147.192C-42.7751 145.371 -43.5661 143.669 -44.3277 142.025C-44.4454 141.774 -44.5631 141.52 -44.6775 141.269C-46.4753 137.346 -47.5279 134.081 -47.992 130.993C-48.5739 127.111 -48.1947 123.449 -46.8905 120.398C-42.1344 109.274 -29.1671 111.329 -23.8128 112.729C-23.1165 112.912 -22.4235 113.102 -21.7273 113.292C-19.3215 113.953 -16.8306 114.634 -14.3104 114.933C-10.1852 115.417 -5.99131 114.872 -1.93473 114.346C-0.927948 114.214 0.0788422 114.085 1.08562 113.966C7.76704 113.197 15.9815 112.997 20.2408 118.306C21.9503 120.439 22.9408 123.13 23.7514 125.724C23.892 126.175 24.0326 126.633 24.1698 127.087C24.84 129.287 25.5362 131.562 26.6247 133.627C27.3112 134.929 28.1578 136.149 28.975 137.329C29.3836 137.919 29.8085 138.529 30.204 139.143C31.1978 140.679 32.3778 142.74 32.6687 145.066C33.0021 147.758 31.6292 151.379 30.1092 153.325C29.2659 154.403 28.161 155.274 27.0921 156.115C25.7062 157.207 24.2744 158.332 23.3494 159.946C21.8948 162.492 22.1367 165.608 22.6106 168.595L22.7185 169.27C23.1434 171.887 23.5847 174.596 22.8002 177.074C22.4439 178.2 21.8327 179.254 21.2443 180.271C20.5905 181.397 19.9172 182.56 19.5609 183.855C19.1915 185.187 19.1751 186.594 19.1588 187.957C19.1392 189.625 19.1196 191.202 18.5181 192.65C18.0997 193.653 17.41 194.535 16.7431 195.389C16.1221 196.186 15.4781 197.01 15.0303 197.949C14.6642 198.718 14.4386 199.552 14.2164 200.356C13.9516 201.322 13.7032 202.234 13.2357 203.058C11.6798 205.791 8.41752 206.577 5.26314 207.337C4.15175 207.604 3.10247 207.855 2.14799 208.191C0.605118 208.73 -0.905067 209.489 -2.36622 210.222C-5.02375 211.554 -7.7728 212.934 -10.7866 213.022C-13.7612 213.11 -16.8764 211.937 -20.6126 209.337C-21.9103 208.432 -23.293 207.594 -24.6463 208.15C-26.2252 208.798 -26.5324 210.801 -26.6991 212.629C-26.9083 214.928 -27.9968 218.196 -30.3863 219.844C-31.0499 220.301 -31.7723 220.698 -32.4718 221.081C-33.5276 221.661 -34.6259 222.261 -35.5576 223.098Z" fill="#51459E"/>
<path d="M85.5251 139.445C87.2477 138.75 88.2349 137.075 89.1894 135.451L89.4215 135.058C90.3008 133.579 91.471 132.03 93.4683 131.752C93.8899 131.694 94.3378 131.691 94.7725 131.688C95.9133 131.681 97.0934 131.674 98.0903 130.691C100.607 128.199 98.7049 125.497 97.1718 123.324C96.6946 122.646 96.2435 122.008 95.9264 121.401C93.6317 117.031 92.8766 113.492 93.5434 110.267C93.7396 109.321 94.0697 108.382 94.3901 107.474C94.8248 106.24 95.2726 104.965 95.4099 103.622C95.5014 102.731 95.4557 101.829 95.4099 100.958C95.3478 99.7777 95.2922 98.6622 95.5472 97.5739C96.0212 95.5635 97.4464 94.0514 98.9566 92.4511C100.463 90.8543 102.023 89.2032 102.536 87.0062C103.35 83.5244 101.16 80.0933 98.8356 78.0456C97.6098 76.964 96.2337 76.0554 94.9065 75.1773C93.5925 74.3094 92.2327 73.411 91.0395 72.3532C89.9837 71.4208 89.0129 70.3257 88.0747 69.268C86.473 67.4643 84.8158 65.5996 82.6747 64.4401C79.8995 62.9382 76.7059 62.8161 73.6201 62.6975C72.7898 62.6669 71.9334 62.633 71.1032 62.572C68.3214 62.372 66.9485 61.0531 66.906 58.5341C66.8864 57.3848 67.161 56.2253 67.4225 55.0997C67.5108 54.7268 67.599 54.3538 67.6742 53.9809C67.9455 52.6858 68.2168 50.7736 67.4552 49.1429C65.6377 45.244 62.3068 42.6876 58.5444 42.2977C58.2568 42.2672 57.9724 42.2503 57.6848 42.2333C57.1127 42.1994 56.5734 42.1655 56.0438 42.0401C55.3214 41.8706 54.6971 41.5383 54.1937 41.0603C53.2032 40.1211 52.6802 38.5853 52.7587 36.8427C52.8895 33.9236 53.9714 31.2045 55.0142 28.5736C55.7464 26.7327 56.5015 24.8307 56.9395 22.8541C57.5344 20.1791 57.1029 17.711 55.7594 16.0768C53.0365 12.7712 46.7212 12.795 43.4655 15.1377C42.7791 15.6327 42.1122 16.1887 41.465 16.7278C39.775 18.1381 38.1766 19.4739 36.1794 19.8638C33.8651 20.3147 31.5377 19.3553 29.2822 18.4297C28.7821 18.2229 28.282 18.0195 27.7851 17.8296C26.0036 17.1482 21.5907 15.8734 19.0672 18.684C17.933 19.9486 17.5767 21.6505 17.2302 23.2982C16.9327 24.7086 16.6287 26.1665 15.8311 27.2853C14.6544 28.9398 12.6212 29.6179 10.6566 30.2756C10.078 30.4688 9.47986 30.6689 8.91109 30.8926C6.07378 32.0013 3.55681 34.6729 4.48188 37.4394C5.15852 39.4736 7.15901 40.1618 9.09087 40.8297C10.3101 41.2501 11.5686 41.6875 12.5068 42.4503C15.063 44.532 14.8112 48.7258 13.4939 51.7433C12.9186 53.0621 12.1668 54.3335 11.4379 55.5608C10.4115 57.2966 9.3491 59.0901 8.74438 61.0769C7.64933 64.6774 8.73784 69.2815 12.1112 70.3969C15.0074 71.353 18.2043 70.3868 20.6689 69.4375C22.4243 68.7628 24.6373 68.8984 25.9317 69.7595C26.6574 70.241 27.0529 70.9055 27.1117 71.7327C27.2033 73.038 26.3697 74.1263 25.4871 75.2824C25.1766 75.6893 24.853 76.1097 24.5784 76.5402C22.9081 79.1372 22.555 81.4969 23.3918 84.4228C24.2613 87.4673 26.0657 90.1152 27.7132 92.302C30.7924 96.3907 34.3129 100.147 38.1766 103.473C38.6408 103.873 39.1082 104.294 39.5985 104.738C40.7884 105.816 42.0207 106.928 43.2824 107.769C44.0931 108.308 44.943 108.694 45.7602 109.064C47.1429 109.691 48.4472 110.281 49.5095 111.552C51.1047 113.458 51.5688 116.763 49.686 118.458C49.2022 118.892 48.6171 119.181 47.9993 119.489C47.3652 119.801 46.7114 120.127 46.159 120.622C44.1977 122.391 44.3775 125.568 45.5412 127.656C46.7507 129.826 48.8525 131.294 50.7059 132.589C52.4874 133.834 54.5075 135.244 55.632 137.329C55.8608 137.756 56.0602 138.228 56.253 138.679C56.6584 139.635 57.0768 140.625 57.8351 141.374C58.8713 142.394 60.2704 142.716 61.6237 143.028C62.1892 143.157 62.771 143.293 63.3104 143.476C64.2616 143.798 65.1736 144.313 66.0529 144.812C66.8014 145.235 67.5761 145.673 68.3933 146.005C69.1844 146.327 70.1062 146.544 71.0182 146.544C72.1328 146.544 73.2311 146.219 74.0549 145.361C74.7577 144.632 75.1042 143.662 75.4408 142.727C75.7873 141.764 76.1142 140.852 76.7909 140.235C77.9513 139.177 79.5693 139.384 81.2855 139.604C82.7139 139.791 84.1947 139.98 85.5251 139.445ZM81.3606 138.936C79.5792 138.709 77.7323 138.472 76.3529 139.733C75.552 140.465 75.1794 141.499 74.8198 142.499C74.4929 143.408 74.1856 144.266 73.5842 144.89C72.3028 146.222 70.1094 145.988 68.6221 145.381C67.8442 145.066 67.0891 144.639 66.3569 144.225C65.4514 143.713 64.5133 143.184 63.5065 142.842C62.9377 142.649 62.3395 142.51 61.7609 142.377C60.4371 142.072 59.1851 141.784 58.2797 140.892C57.6161 140.238 57.2402 139.353 56.8447 138.417C56.6453 137.95 56.4426 137.465 56.1975 137.007C54.9978 134.78 52.8175 133.257 51.0654 132.033C49.2676 130.779 47.2344 129.358 46.1001 127.324C45.0509 125.443 44.9463 122.615 46.5807 121.137C47.0644 120.699 47.6496 120.411 48.2706 120.106C48.9015 119.794 49.5553 119.472 50.1044 118.977C52.2782 117.021 51.7911 113.264 49.9933 111.115C48.8361 109.728 47.4011 109.077 46.0119 108.45C45.2143 108.091 44.3906 107.714 43.6257 107.206C42.4064 106.392 41.1937 105.297 40.0202 104.236C39.5233 103.788 39.0559 103.365 38.5852 102.958C34.7574 99.6624 31.2729 95.9398 28.2199 91.8917C26.6116 89.7558 24.8497 87.1758 24.0097 84.2397C23.2219 81.4902 23.5422 79.3712 25.1145 76.9267C25.376 76.5199 25.6898 76.1097 25.9938 75.713C26.9156 74.506 27.8668 73.2618 27.7557 71.692C27.6838 70.6546 27.1706 69.7935 26.2782 69.1968C25.4218 68.6272 24.2581 68.3356 23.0486 68.3356C22.166 68.3356 21.2606 68.4916 20.4336 68.8103C18.067 69.7223 15.0074 70.6512 12.3041 69.7595C9.30662 68.7696 8.36193 64.5791 9.36219 61.2905C9.94403 59.3817 10.9835 57.6255 11.9903 55.9235C12.729 54.6759 13.4907 53.3876 14.0856 52.0314C15.5043 48.7835 15.7396 44.237 12.9055 41.9282C11.8791 41.0908 10.5651 40.6365 9.29353 40.1991C7.43032 39.555 5.66845 38.9481 5.09641 37.2292C4.2596 34.7203 6.95635 32.3912 9.13991 31.5368C9.6956 31.3198 10.284 31.1232 10.856 30.9299C12.9186 30.2383 15.0531 29.5263 16.3574 27.6955C17.24 26.4581 17.5603 24.929 17.8708 23.4508C18.2141 21.8201 18.5377 20.2808 19.5477 19.1519C21.8032 16.6362 25.9023 17.8364 27.5596 18.4704C28.0499 18.6569 28.5467 18.8603 29.0403 19.0637C31.3808 20.0266 33.8029 21.0233 36.297 20.5351C38.4577 20.1147 40.1935 18.6637 41.8703 17.2634C42.5078 16.7312 43.1648 16.1819 43.8316 15.7039C46.8683 13.5205 52.7391 13.4696 55.256 16.5243C56.4655 17.989 56.8447 20.2436 56.2955 22.7083C55.8706 24.6307 55.1253 26.5055 54.4029 28.3194C53.3373 31.0045 52.2357 33.7812 52.0984 36.8156C52.0101 38.7582 52.6116 40.4907 53.7459 41.5654C54.3342 42.1248 55.0566 42.508 55.8935 42.7046C56.4753 42.8436 57.067 42.8775 57.6423 42.9148C57.9201 42.9317 58.2012 42.9487 58.4758 42.9758C62.0617 43.3454 65.118 45.7017 66.8635 49.4412C67.5369 50.8855 67.2819 52.6451 67.0302 53.8419C66.9551 54.208 66.8668 54.5776 66.7818 54.9437C66.5072 56.11 66.2261 57.3136 66.2457 58.5511C66.2948 61.4057 67.9553 63.0297 71.0541 63.2535C71.8942 63.3145 72.7572 63.3484 73.5907 63.3789C76.6078 63.4942 79.723 63.6129 82.3674 65.0436C84.4104 66.1488 85.9533 67.8881 87.591 69.729C88.5455 70.8004 89.5294 71.909 90.6146 72.8685C91.8437 73.9568 93.2231 74.8654 94.5568 75.7469C95.8676 76.6114 97.2208 77.5065 98.4139 78.5609C100.588 80.4798 102.647 83.6634 101.902 86.8469C101.431 88.8608 100.003 90.3728 98.4924 91.9765C96.9887 93.5733 95.4328 95.221 94.9163 97.4112C94.6385 98.5944 94.7006 99.815 94.7594 100.991C94.8019 101.839 94.8477 102.714 94.7594 103.548C94.6287 104.809 94.2135 105.989 93.7755 107.24C93.4486 108.169 93.1119 109.132 92.906 110.122C91.9809 114.58 93.8605 118.879 95.3544 121.723C95.6943 122.371 96.1552 123.025 96.6455 123.72C98.1688 125.88 99.7443 128.114 97.6392 130.196C96.8351 130.993 95.8316 130.999 94.7692 131.003C94.3149 131.006 93.8474 131.006 93.3833 131.071C91.1049 131.386 89.7745 133.173 88.8691 134.691L88.637 135.088C87.7381 136.614 86.8064 138.19 85.293 138.801C84.113 139.285 82.7139 139.109 81.3606 138.936Z" fill="#51459E"/>
<path d="M86.6004 128.168C86.8979 128.212 87.2051 128.273 87.4993 128.334C88.1465 128.466 88.8134 128.605 89.4933 128.558C91.2421 128.442 92.8144 127.008 93.1543 125.225C93.442 123.713 92.9386 122.32 92.4483 120.974C92.226 120.363 91.9972 119.729 91.8566 119.109C91.6572 118.248 91.7389 117.492 91.8239 116.692C91.9187 115.81 92.0168 114.901 91.6964 113.874C91.3957 112.905 90.9217 111.925 90.4641 110.979C89.2775 108.524 88.1531 106.209 89.4998 103.693C89.758 103.208 90.1241 102.764 90.4739 102.333C90.9544 101.747 91.4513 101.137 91.7259 100.391C92.1312 99.2889 91.9776 98.1158 91.8337 96.9801C91.7684 96.4817 91.703 95.9664 91.6866 95.4714C91.6245 93.6169 92.6444 91.5894 93.6316 89.6298C95.315 86.2835 97.0573 82.8254 93.9519 79.7266C92.7457 78.5197 91.0852 78.1501 89.4802 77.7907C88.2479 77.5161 86.9763 77.2279 85.927 76.5668C84.3744 75.587 83.8383 74.2648 83.2728 72.8646C82.9851 72.1526 82.6844 71.4135 82.2431 70.6812C82.1516 70.5286 82.0502 70.3794 81.9391 70.2337C80.4028 68.1927 77.4641 67.1179 75.3884 66.4907C74.4634 66.2093 73.5089 65.9686 72.5871 65.7381C70.5866 65.2329 68.5142 64.7108 66.6575 63.7513C63.3233 62.0358 61.7968 59.3913 61.8459 55.4348C61.8883 52.0241 61.604 47.8574 58.9987 45.8706C57.4853 44.7179 55.5371 44.562 53.6543 44.4128C51.5949 44.25 49.65 44.0941 48.2836 42.7312C46.1753 40.6258 46.8617 36.8794 48.3915 34.2858C48.957 33.3297 49.6304 32.4076 50.2841 31.5193C51.4674 29.9055 52.6867 28.2374 53.3241 26.2778C53.9419 24.3826 53.6739 22.0229 52.6638 20.4091C51.9447 19.2598 50.9379 18.5953 49.7513 18.48C47.8652 18.297 46.3289 19.531 44.8416 20.7211C44.2467 21.1991 43.6321 21.6907 43.0078 22.0772C40.4549 23.6673 37.4835 23.6944 34.3357 23.7249C32.5542 23.7419 30.7139 23.7588 28.9618 24.0877C24.0227 25.0132 19.8942 28.3731 16.2527 31.3362C14.0202 33.1501 11.5391 35.6148 12.1504 38.5746C12.6048 40.7682 14.5432 41.9989 16.4162 43.1889C18.2598 44.3585 20.0021 45.4672 20.4695 47.4031C21.1723 50.3323 18.7305 52.7191 16.3672 55.028C15.1806 56.1875 14.0561 57.2825 13.386 58.4081C12.5296 59.849 11.9608 62.0494 12.9415 63.9107C14.0725 66.0567 16.6515 66.6772 18.6128 66.8196C22.9374 67.1315 28.3179 67.5214 29.2723 72.8815C29.5567 74.475 29.292 76.0583 29.0108 77.7365C28.8801 78.523 28.7428 79.3401 28.6709 80.147C28.0694 86.965 32.3352 91.8132 35.5975 94.8679C42.5567 101.388 48.9734 106.87 57.0048 107.883C57.4787 107.944 57.9625 107.989 58.43 108.029C59.7506 108.148 61.1136 108.273 62.346 108.768C63.9117 109.399 65.4154 110.969 65.265 112.749C65.1408 114.223 63.879 115.596 61.8916 116.42C61.3817 116.631 60.8423 116.814 60.3226 116.993C59.1262 117.4 57.8939 117.821 56.8609 118.621C55.001 120.062 54.0073 122.753 54.3897 125.317C54.7395 127.669 56.1385 129.88 58.2273 131.389C60.5514 133.067 63.4475 133.711 66.0005 134.281L66.262 134.338C68.1514 134.762 70.5474 135.298 72.8551 135.298C74.957 135.298 76.9869 134.854 78.5003 133.477C79.1247 132.911 79.5006 132.182 79.8602 131.48C80.2295 130.761 80.5793 130.083 81.1709 129.571C82.4883 128.432 84.6162 127.88 86.6004 128.168ZM80.8637 129.178C80.1968 129.758 79.8111 130.511 79.4352 131.24C79.0789 131.935 78.7422 132.589 78.1833 133.094C75.1923 135.813 69.8838 134.626 66.3698 133.84L66.1083 133.782C63.5979 133.223 60.7541 132.589 58.5117 130.968C56.5308 129.541 55.2069 127.449 54.8768 125.235C54.5238 122.852 55.439 120.357 57.1584 119.024C58.126 118.271 59.27 117.885 60.4795 117.471C61.009 117.292 61.5549 117.105 62.0779 116.888C63.1174 116.458 65.5526 115.196 65.7553 112.789C65.9351 110.667 64.2092 108.968 62.5257 108.29C61.228 107.768 59.829 107.639 58.4725 107.517C58.0083 107.477 57.5278 107.433 57.0636 107.375C49.1727 106.378 42.8215 100.95 35.9243 94.4882C32.7405 91.5047 28.5761 86.7785 29.1579 80.1911C29.2266 79.4045 29.3606 78.601 29.4913 77.8212C29.7659 76.1735 30.0503 74.4682 29.7496 72.7866C28.7232 67.0433 22.8982 66.6195 18.6422 66.311C16.8019 66.1788 14.3928 65.6092 13.3664 63.6632C12.4871 61.9917 13.0134 59.988 13.7979 58.6692C14.4353 57.6012 15.5336 56.5299 16.6973 55.3941C19.0476 53.0988 21.7149 50.4985 20.9402 47.2776C20.427 45.1383 18.5148 43.9246 16.6679 42.7515C14.8014 41.5649 13.0363 40.4461 12.6277 38.4627C12.072 35.7776 14.4353 33.4552 16.5535 31.7295C20.1524 28.8036 24.2286 25.4845 29.0501 24.5827C30.7596 24.2606 32.5804 24.247 34.339 24.2301C37.4149 24.2029 40.5922 24.1724 43.2595 22.5112C43.9067 22.1077 44.5343 21.6059 45.1391 21.1211C46.5185 20.0159 47.8293 18.9682 49.3754 18.9682C49.4833 18.9682 49.5944 18.975 49.7023 18.9852C51.0033 19.1106 51.8041 19.9786 52.2487 20.6838C53.1836 22.1755 53.4254 24.3555 52.8567 26.1117C52.2454 27.9933 51.049 29.6275 49.8886 31.2074C49.2283 32.1092 48.5451 33.0382 47.9698 34.018C46.3387 36.7777 45.6326 40.7953 47.9404 43.0939C49.4342 44.5823 51.559 44.7518 53.6118 44.9146C55.4259 45.0603 57.3022 45.2095 58.7045 46.2741C61.13 48.1218 61.3948 52.1326 61.3523 55.4212C61.3 59.5948 62.9147 62.385 66.4352 64.1988C68.3409 65.182 70.4395 65.7109 72.4661 66.2229C73.3814 66.4534 74.3294 66.6941 75.2446 66.9721C78.399 67.9282 80.4616 69.0979 81.5468 70.5422C81.6449 70.6744 81.7397 70.81 81.8214 70.949C82.2431 71.644 82.534 72.3628 82.8151 73.0578C83.4133 74.536 83.9788 75.9294 85.6655 76.9974C86.7835 77.7026 88.0975 77.9975 89.3691 78.2823C90.9773 78.6417 92.4973 78.9841 93.6021 80.0894C96.4427 82.9237 94.8606 86.0666 93.187 89.3925C92.1704 91.4097 91.1211 93.4982 91.1865 95.4883C91.2029 96.0071 91.2715 96.5359 91.3369 97.0445C91.4807 98.1667 91.618 99.2245 91.2584 100.208C91.0133 100.876 90.5654 101.421 90.0915 102.005C89.7254 102.452 89.3462 102.917 89.0618 103.445C87.5909 106.195 88.8232 108.741 90.0163 111.206C90.4674 112.135 90.9315 113.094 91.2225 114.03C91.5101 114.952 91.4219 115.769 91.3303 116.634C91.2454 117.441 91.1538 118.275 91.3728 119.224C91.5232 119.875 91.7553 120.523 91.9841 121.15C92.4679 122.489 92.9255 123.757 92.6673 125.127C92.3698 126.69 90.9904 127.947 89.4573 128.049C88.8395 128.09 88.2315 127.964 87.5909 127.832C87.2901 127.771 86.9763 127.707 86.6625 127.663C84.5541 127.361 82.2758 127.954 80.8637 129.178Z" fill="#51459E"/>
<path d="M83.5442 144.561C84.8223 143.737 86.4175 143.642 87.9636 143.55C88.2153 143.537 88.467 143.52 88.7187 143.503C91.7947 143.279 97.4889 142.228 101.068 137.665C104.216 133.65 104.193 128.494 101.006 123.14C100.398 122.12 99.6202 121.12 98.8683 120.15C96.6913 117.35 94.4358 114.451 95.9199 110.65C96.1977 109.935 96.6455 109.314 97.1162 108.657C97.6294 107.941 98.1623 107.199 98.4532 106.328C98.8912 105.012 98.7114 103.622 98.5349 102.28C98.3944 101.198 98.2505 100.083 98.4369 99.0316C98.8945 96.4549 100.826 94.9496 102.869 93.3595C104.291 92.2509 105.765 91.1049 106.681 89.5623C109.201 85.3244 105.027 79.8252 101.608 77.1638C100.382 76.2077 99.1266 75.3161 97.9106 74.4549C95.155 72.4987 92.553 70.651 90.1995 68.0913C89.804 67.6607 89.4117 67.2199 89.0227 66.7792C87.6989 65.2841 86.3325 63.7414 84.6883 62.565C82.8578 61.2597 80.5696 61.08 78.3567 60.9037C75.5063 60.68 72.8128 60.4698 71.0868 58.0253C69.8022 56.2081 70.0703 53.8891 70.3546 51.4379C70.6161 49.1663 70.8875 46.8134 69.8382 44.8369C68.6974 42.6908 66.4288 41.7517 64.2355 40.8464C62.2546 40.0294 60.205 39.1818 59.0348 37.4493C57.4592 35.1201 57.7208 31.801 59.8389 27.2986L59.9893 26.9765C61.4995 23.7693 63.2123 20.1382 62.0813 16.6868C60.1887 10.9063 52.239 10.1197 47.1985 11.4081C45.927 11.7335 44.6652 12.1234 43.4427 12.4997C39.2782 13.7881 35.3491 15.0018 30.9755 13.8694C30.0374 13.6253 29.0338 13.2456 27.9715 12.8422C24.4804 11.5165 20.5252 10.0112 17.459 13.0286C15.6677 14.7882 15.4716 17.4124 15.2787 19.9449C15.1251 21.9825 14.9649 24.088 13.9908 25.7594C12.3924 28.509 9.56164 29.3905 6.56742 30.3262C3.88048 31.1636 1.10526 32.0315 -0.71873 34.3641C-3.41222 37.8019 -1.11424 40.6057 1.10853 43.3146C2.48797 44.9962 3.91315 46.7355 4.13869 48.6103C4.44269 51.1395 2.9979 53.4924 1.60213 55.7673C0.0886741 58.2321 -1.47709 60.7817 -0.865829 63.599C-0.310134 66.1757 1.83093 67.7895 3.90008 69.3525C5.81559 70.7968 7.79648 72.2919 8.46005 74.5261C8.99613 76.3298 8.57772 78.3267 8.17239 80.2592C7.68861 82.5579 7.19176 84.9311 8.30315 86.9958C9.67605 89.5454 12.8206 90.1726 14.5727 90.3184C15.3245 90.3828 16.0927 90.3997 16.8347 90.4167C18.4168 90.454 20.0577 90.4879 21.5679 90.9795C24.8955 92.0576 27.7427 95.1835 28.6514 98.7535C29.5503 102.276 31.6685 106.06 34.9503 109.999L35.0157 110.077C35.5551 110.725 36.1108 111.393 36.2481 112.186C36.4344 113.295 35.797 114.271 35.1236 115.305C34.6267 116.065 34.1135 116.851 33.9043 117.736C33.28 120.364 35.4995 122.7 36.8789 123.856C37.111 124.049 37.3464 124.242 37.585 124.439C39.1082 125.683 40.6838 126.971 41.1905 128.829C41.5533 130.158 41.2951 131.66 41.0859 132.864C40.844 134.264 40.5923 135.712 40.9453 137.122C41.586 139.695 43.9428 140.563 46.2212 141.404C47.5712 141.899 48.8427 142.37 49.7449 143.164C50.8171 144.11 51.4218 145.435 52.0625 146.842C52.5463 147.907 53.0497 149.005 53.7721 149.921C55.2234 151.748 57.6456 153.542 60.3652 153.542C60.7019 153.542 61.0418 153.514 61.3851 153.457C62.3363 153.297 63.2352 152.914 64.1047 152.545C65.105 152.121 66.0464 151.718 67.0662 151.619C68.4718 151.484 69.9232 151.948 71.3288 152.396C73.1887 152.989 75.114 153.606 76.938 152.816C78.7293 152.043 79.6805 150.229 80.599 148.476C81.3836 146.985 82.2008 145.425 83.5442 144.561ZM80.1643 148.249C79.2458 150.002 78.3795 151.657 76.7451 152.362C75.0846 153.077 73.326 152.518 71.4693 151.924C70.018 151.46 68.5209 150.982 67.0172 151.128C65.9254 151.233 64.9023 151.667 63.9151 152.087C63.0718 152.446 62.199 152.816 61.3033 152.969C58.3778 153.46 55.6876 151.558 54.1447 149.612C53.4583 148.748 52.9712 147.676 52.5005 146.642C51.8663 145.252 51.2126 143.811 50.0587 142.794C49.0912 141.94 47.7117 141.431 46.3813 140.943C44.2239 140.15 41.9913 139.326 41.416 137.014C41.0924 135.708 41.331 134.318 41.5631 132.972C41.7789 131.718 42.0502 130.152 41.6546 128.711C41.1055 126.693 39.4646 125.354 37.8792 124.059C37.6438 123.866 37.4085 123.673 37.1797 123.479C35.8918 122.398 33.8128 120.228 34.3718 117.875C34.5614 117.078 35.0484 116.329 35.5224 115.607C36.2219 114.536 36.9476 113.427 36.7253 112.115C36.5684 111.179 35.9637 110.457 35.3818 109.759L35.3164 109.681C32.0836 105.799 29.9981 102.083 29.1221 98.6383C28.1709 94.9055 25.193 91.6372 21.7117 90.5082C20.1329 89.9963 18.4593 89.959 16.8412 89.9217C16.1058 89.9047 15.3474 89.8878 14.6086 89.8268C12.9546 89.6878 9.98984 89.1046 8.72482 86.7619C7.70496 84.8667 8.16259 82.6867 8.64637 80.3813C9.06478 78.3843 9.49952 76.3196 8.92421 74.3871C8.21161 71.9902 6.16535 70.4476 4.18446 68.9524C2.0957 67.3759 0.124619 65.8875 -0.39185 63.4973C-0.954083 60.8868 0.48745 58.5373 2.01398 56.0487C3.45878 53.6958 4.94937 51.265 4.62576 48.5527C4.3806 46.5253 2.90636 44.725 1.48116 42.9891C-0.70893 40.3209 -2.77479 37.8019 -0.339538 34.6896C1.38965 32.4791 4.09294 31.6349 6.70798 30.8212C9.6597 29.899 12.716 28.9463 14.4093 26.0306C15.4422 24.2541 15.6056 22.0876 15.7658 19.9924C15.9587 17.4395 16.1417 15.0323 17.7957 13.405C20.6396 10.6079 24.4444 12.0522 27.8015 13.327C28.8769 13.7372 29.8935 14.1203 30.8578 14.3712C35.359 15.5409 39.3567 14.3034 43.5832 12.9981C44.7992 12.6218 46.0577 12.2319 47.3162 11.9098C52.0363 10.7029 59.8455 11.442 61.6172 16.8563C62.6828 20.1077 61.0157 23.6438 59.548 26.7595L59.3977 27.0816C57.1945 31.7637 56.9461 35.2524 58.6328 37.7477C59.888 39.6022 62.0062 40.4803 64.0524 41.3245C66.2621 42.2365 68.3509 43.101 69.4067 45.0878C70.3808 46.9219 70.1193 49.1901 69.8643 51.3836C69.5832 53.8281 69.289 56.3539 70.6881 58.3338C72.548 60.9681 75.4801 61.1987 78.3174 61.4191C80.465 61.5886 82.6878 61.7615 84.4072 62.9922C86.0056 64.1347 87.3524 65.657 88.6566 67.1318C89.0489 67.5759 89.4411 68.0167 89.8399 68.4506C92.2294 71.0476 94.851 72.9089 97.6294 74.8821C98.8389 75.7433 100.091 76.6315 101.31 77.5774C104.585 80.127 108.606 85.3549 106.259 89.3013C105.39 90.7591 103.958 91.8779 102.572 92.9594C100.542 94.5394 98.4434 96.1769 97.9498 98.9468C97.7471 100.076 97.8975 101.235 98.0446 102.354C98.2178 103.697 98.3846 104.968 97.9858 106.168C97.721 106.965 97.2339 107.643 96.7207 108.358C96.25 109.013 95.7662 109.687 95.4622 110.464C93.8703 114.542 96.2173 117.556 98.4826 120.472C99.2279 121.428 99.9961 122.418 100.588 123.412C102.366 126.395 104.742 132.176 100.686 137.349C97.2241 141.763 91.6803 142.784 88.6828 143.001C88.4343 143.018 88.1859 143.035 87.9342 143.048C86.3292 143.143 84.6687 143.242 83.286 144.133C81.8314 145.062 80.9848 146.683 80.1643 148.249Z" fill="#51459E"/>
<path d="M81.1319 156.719C81.9523 156.454 82.8022 156.536 83.6227 156.614C85.0708 156.753 86.5711 156.898 87.4831 154.874C87.9113 153.922 88.078 152.854 88.2382 151.82C88.4768 150.291 88.6991 148.85 89.7026 147.751C90.425 146.961 91.4809 146.534 92.4125 146.154C93.3539 145.775 94.3541 145.443 95.4132 145.09C98.7474 143.985 102.196 142.842 104.259 140.001C107.413 135.655 106.011 129.308 104.889 125.914C104.036 123.327 103.213 121.469 102.294 120.066C102.019 119.649 101.725 119.225 101.428 118.798C99.4404 115.94 97.3843 112.983 99.679 109.691C99.849 109.444 100.032 109.203 100.215 108.959C100.888 108.061 101.585 107.132 101.791 105.982C101.921 105.267 101.84 104.545 101.761 103.846C101.729 103.562 101.699 103.277 101.679 102.992C101.617 101.951 101.83 101.202 102.327 100.693C103.366 99.6355 105.56 99.8254 107.321 99.9746C107.828 100.019 108.309 100.059 108.74 100.073C112.486 100.168 116.079 96.4927 116.409 92.1836C116.654 88.9458 115.346 85.4876 112.816 82.694C111.143 80.8429 109.083 79.4053 107.096 78.0119C105.808 77.1101 104.478 76.1811 103.268 75.1505C100.807 73.0518 98.731 70.4481 96.7273 67.9256C95.7793 66.7356 94.7987 65.5015 93.7886 64.3353C89.7942 59.7278 85.9206 57.1749 81.9458 56.5307C81.6451 56.4832 81.3345 56.4391 81.0207 56.3985C79.5628 56.2052 78.0559 56.0052 77.1537 54.927C76.3725 53.9913 76.2908 52.7233 76.2025 51.3774C76.1469 50.5298 76.0914 49.6517 75.8495 48.838C75.15 46.4986 73.1135 45.1561 71.1424 43.8576C69.7205 42.9184 68.2495 41.9488 67.2689 40.6096C65.932 38.7822 65.592 36.2225 66.4027 34.09C67.1708 32.0626 68.3738 31.476 69.897 30.7335C70.3808 30.4996 70.8776 30.2555 71.4007 29.947C73.4665 28.7298 74.1203 25.4819 74.0451 22.851C73.9569 19.7929 72.9174 16.9111 71.9106 14.1276C70.59 10.4728 69.0929 6.32984 66.4419 3.1463C64.108 0.345876 60.0579 -2.31216 55.7039 -1.37303C53.4223 -0.88143 51.4839 0.525562 49.6109 1.88848C48.1138 2.97678 46.5644 4.10238 44.8548 4.74315C40.4615 6.39764 36.0225 4.80418 31.3253 3.11918C28.4454 2.08512 25.4676 1.01716 22.4766 0.752713C18.188 0.372995 13.5201 2.20039 10.2808 5.52632C7.48921 8.39455 6.09671 11.9578 6.35821 15.5617C6.43666 16.6433 6.64914 17.7689 6.8518 18.8572C7.365 21.5966 7.84878 24.1834 6.46282 26.2854C4.71401 28.9367 1.49425 28.8078 -1.9151 28.6688C-4.24575 28.5739 -6.65487 28.479 -8.73382 29.2689C-11.12 30.1741 -12.8754 32.605 -13.3232 35.6055C-13.7678 38.6093 -12.7936 41.4742 -10.7833 43.0812C-9.45948 44.139 -7.76952 44.8103 -6.13513 45.4578C-3.39915 46.5427 -0.816801 47.57 -0.212074 50.245C0.307664 52.5436 -1.04562 54.6084 -2.48062 56.7917C-3.8862 58.9344 -5.33753 61.1483 -4.88317 63.6335C-4.57264 65.3286 -3.43836 66.617 -2.34331 67.868C-1.77781 68.5122 -1.18943 69.1835 -0.728529 69.8954C1.23602 72.9332 1.07257 76.9304 0.608397 80.7988L0.536492 81.3955C0.0886679 85.0469 -0.372239 88.8271 1.03988 92.1971C2.65466 96.0486 6.16208 97.5132 11.7648 96.6724C16.4751 95.9672 20.28 96.6656 23.0716 98.7507C23.6174 99.1575 24.098 99.605 24.5425 100.117C25.2911 100.978 25.8598 101.927 26.5365 103.178C27.0627 104.155 27.795 104.948 28.5043 105.718C29.0567 106.318 29.6287 106.935 30.0929 107.633C31.2599 109.383 31.7633 111.278 31.5116 112.963C31.3678 113.919 30.9788 114.858 30.6028 115.767C30.057 117.082 29.4915 118.445 29.6484 119.906C29.8739 122.053 31.492 123.487 33.0512 124.877C34.2214 125.918 35.4308 126.992 36.0715 128.362C36.7939 129.911 36.7318 131.634 36.6665 133.458C36.6272 134.526 36.588 135.631 36.722 136.699C36.9803 138.791 37.8792 140.686 38.7487 142.517C39.4645 144.025 40.3537 145.907 41.9848 146.887C43.0373 147.521 44.2566 147.694 45.4366 147.863C46.6494 148.036 47.7934 148.199 48.7708 148.816C50.8857 150.148 51.4349 153.078 51.7127 156.044L52.592 165.412C52.7718 167.331 52.9581 169.311 53.7034 171.145C54.197 172.362 55.0175 173.24 55.8118 174.088C56.3577 174.671 56.9199 175.274 57.3645 175.976L57.6031 176.352C58.8616 178.349 60.0514 180.234 61.9277 181.79C64.3956 183.835 67.4683 184.859 70.4364 184.859C73.3848 184.859 76.2287 183.848 78.2651 181.824C81.5829 178.536 82.6257 172.921 80.8638 167.859C80.6252 167.171 80.3343 166.486 80.0564 165.825C79.5105 164.53 78.945 163.194 78.7489 161.794C78.4678 159.773 79.2785 157.315 81.1319 156.719ZM78.2651 161.879C78.4711 163.347 79.0496 164.717 79.6119 166.039C79.8864 166.693 80.1741 167.368 80.4062 168.039C82.1027 172.918 81.109 178.312 77.9317 181.465C74.0124 185.354 66.9747 185.323 62.2382 181.401C60.4208 179.895 59.2538 178.044 58.0182 176.081L57.7796 175.705C57.3089 174.962 56.7303 174.342 56.1681 173.742C55.3705 172.887 54.6154 172.08 54.1578 170.955C53.4419 169.195 53.2589 167.249 53.0823 165.371L52.203 156.003C51.9121 152.905 51.327 149.836 49.0258 148.389C47.9601 147.717 46.7115 147.538 45.502 147.365C44.3154 147.195 43.1975 147.036 42.2299 146.453C40.7296 145.548 39.8731 143.744 39.1867 142.296C38.3368 140.499 37.4575 138.645 37.2091 136.638C37.0816 135.611 37.1208 134.529 37.1568 133.481C37.2221 131.674 37.2875 129.806 36.5128 128.145C35.8297 126.68 34.581 125.568 33.3715 124.494C31.8123 123.11 30.3413 121.802 30.1354 119.856C29.9949 118.527 30.5081 117.286 31.0539 115.974C31.4429 115.034 31.845 114.065 31.9986 113.044C32.2699 111.231 31.7371 109.206 30.4982 107.349C30.0112 106.62 29.4261 105.986 28.8606 105.372C28.1414 104.592 27.4615 103.857 26.9647 102.938C26.2717 101.656 25.6866 100.68 24.9086 99.7847C24.4412 99.2456 23.9345 98.7744 23.3592 98.3472C20.4598 96.1842 16.5372 95.4552 11.6961 96.1774C6.34185 96.9775 3.00443 95.6112 1.49097 92.0005C0.131157 88.7559 0.585521 85.0503 1.02354 81.4633L1.09544 80.8632C1.57269 76.8965 1.73287 72.7874 -0.31993 69.6106C-0.800443 68.8681 -1.39863 68.1867 -1.97721 67.5256C-3.07553 66.2745 -4.11501 65.0913 -4.3994 63.5385C-4.8178 61.2602 -3.48412 59.2294 -2.07527 57.0799C-0.646808 54.8999 0.833947 52.6487 0.265177 50.1331C-0.398388 47.1937 -3.22589 46.0715 -5.9586 44.9866C-7.56031 44.3526 -9.21433 43.6948 -10.4826 42.6811C-12.3524 41.186 -13.2578 38.5076 -12.8394 35.6868C-12.421 32.8661 -10.7834 30.5911 -8.56711 29.7503C-6.57968 28.9943 -4.2196 29.0892 -1.93471 29.1808C1.61193 29.3232 4.96571 29.4588 6.86814 26.577C8.36852 24.2987 7.84224 21.4847 7.33231 18.7656C7.12964 17.6909 6.92371 16.5822 6.84526 15.5312C6.59356 12.0799 7.93377 8.659 10.624 5.89587C13.7653 2.67165 18.2926 0.898502 22.4309 1.26466C25.3597 1.52572 28.3082 2.5835 31.1618 3.60738C35.7349 5.24831 40.4615 6.94349 45.0215 5.22797C46.7899 4.56347 48.3655 3.41753 49.8887 2.30889C51.8075 0.915454 53.6184 -0.400002 55.802 -0.87126C59.2211 -1.60697 63.2516 0.101768 66.0693 3.48194C68.6647 6.59767 70.0801 10.5169 71.4497 14.3073C72.4434 17.0535 73.4665 19.8946 73.5515 22.8679C73.6202 25.2378 73.035 28.3976 71.1555 29.5062C70.6521 29.8046 70.1618 30.0419 69.6878 30.2725C68.1286 31.0319 66.7851 31.6862 65.945 33.9035C65.0755 36.1988 65.4416 38.9517 66.8799 40.9181C67.9128 42.3319 69.423 43.3253 70.8809 44.2882C72.8618 45.5968 74.7348 46.8309 75.382 48.9939C75.6076 49.75 75.6632 50.5976 75.7155 51.4147C75.8037 52.7844 75.8953 54.1981 76.7844 55.2627C77.8108 56.49 79.4125 56.7002 80.9586 56.907C81.2659 56.9477 81.5732 56.9884 81.8706 57.0358C85.7311 57.6631 89.5098 60.1617 93.4258 64.6811C94.4293 65.8406 95.4067 67.0679 96.3514 68.2545C98.3715 70.7939 100.463 73.418 102.961 75.5471C104.19 76.5947 105.53 77.5305 106.825 78.4391C108.792 79.8156 110.826 81.2395 112.463 83.0466C114.898 85.7385 116.157 89.0543 115.922 92.1497C115.618 96.1469 112.359 99.5745 108.904 99.5745C108.854 99.5745 108.805 99.5745 108.756 99.5711C108.338 99.5576 107.867 99.5203 107.367 99.4762C105.409 99.3067 103.19 99.1168 101.99 100.337C101.392 100.944 101.124 101.853 101.196 103.029C101.212 103.324 101.248 103.623 101.277 103.911C101.353 104.602 101.428 105.253 101.31 105.894C101.124 106.921 100.496 107.762 99.8294 108.65C99.643 108.898 99.4567 109.145 99.2835 109.396C96.7828 112.987 99.0416 116.235 101.032 119.1C101.326 119.523 101.617 119.944 101.889 120.357C102.771 121.7 103.602 123.575 104.425 126.084C105.301 128.738 106.998 135.383 103.866 139.699C101.898 142.412 98.5251 143.527 95.2628 144.608C94.1939 144.961 93.1872 145.297 92.2327 145.683C91.252 146.08 90.1439 146.531 89.3463 147.402C88.2415 148.612 87.9931 150.203 87.7544 151.738C87.5975 152.739 87.4374 153.769 87.0386 154.657C86.2737 156.356 85.1231 156.248 83.6684 156.105C82.7989 156.02 81.9033 155.936 80.988 156.231C78.8045 156.936 77.9546 159.665 78.2651 161.879Z" fill="#51459E"/>
<path d="M-33.7074 -22.7934C-32.9294 -22.0984 -32.1285 -21.3763 -31.3669 -20.4643C-28.2714 -16.745 -27.6339 -12.2596 -26.9606 -7.50974C-26.8887 -6.9978 -26.8168 -6.48586 -26.7383 -5.9773C-26.6206 -5.19413 -26.5356 -4.34316 -26.4408 -3.44472C-26.0944 -0.0611496 -25.6988 3.77333 -23.5414 6.10589C-22.0116 7.76038 -19.851 8.40793 -17.7622 9.03176C-16.2357 9.48945 -14.6601 9.96072 -13.3395 10.8219C-12.1562 11.5949 -11.0775 12.7205 -10.0348 13.8088C-8.20425 15.7175 -6.31816 17.6907 -3.84368 17.6907C-3.65409 17.6907 -3.46123 17.6805 -3.2651 17.6568C-0.480087 17.3178 1.21642 14.5377 1.82441 12.2594C2.23628 10.71 2.34414 9.08939 2.44875 7.52305C2.51412 6.55341 2.5795 5.55326 2.71679 4.58363C3.49803 -0.908733 6.71452 -5.87898 11.3137 -8.7167C15.9162 -11.5544 21.6627 -12.1037 26.6869 -10.1915C28.3441 -9.5609 29.9262 -8.66585 31.4593 -7.80131C32.5511 -7.18427 33.6821 -6.54688 34.836 -6.00443C38.3009 -4.37706 41.3343 -4.04481 43.8578 -5.01445C45.7406 -5.73659 47.2508 -7.1741 48.712 -8.56075C50.1535 -9.93045 51.6441 -11.3442 53.4648 -12.0257C55.2103 -12.6766 57.0539 -12.6088 59.0021 -12.5342C59.9697 -12.4969 60.9699 -12.4596 61.9473 -12.5207C64.9971 -12.7105 68.328 -14.5583 68.498 -17.6062C68.6483 -20.2846 66.5106 -21.9628 64.4447 -23.5834C63.1535 -24.5971 61.8166 -25.6481 60.983 -26.95C59.4892 -29.2825 59.7049 -32.2762 59.9108 -35.1716C59.9533 -35.7717 59.9991 -36.3955 60.0253 -36.9956C60.1756 -40.2808 59.3323 -41.5725 57.5573 -43.9593C57.3318 -44.2611 57.1618 -44.5899 57.0245 -44.9324H56.5015C56.6584 -44.4781 56.8742 -44.0441 57.1683 -43.6474C58.8648 -41.3623 59.6755 -40.1249 59.5349 -37.0193C59.5088 -36.4226 59.463 -35.8056 59.4205 -35.2055C59.2081 -32.2254 58.9858 -29.1435 60.5711 -26.6652C61.4505 -25.2921 62.8201 -24.214 64.1472 -23.1765C66.2 -21.5627 68.1417 -20.0405 68.0077 -17.6333C67.854 -14.8804 64.7552 -13.2055 61.9179 -13.0292C60.9634 -12.9716 59.9762 -13.0055 59.0185 -13.0428C57.1062 -13.114 55.1319 -13.1886 53.2981 -12.5037C51.3858 -11.7917 49.856 -10.3407 48.3786 -8.93708C46.9534 -7.58433 45.4791 -6.18412 43.6846 -5.49249C41.2886 -4.57031 38.3793 -4.89917 35.0353 -6.4689C33.8978 -7.00458 32.7766 -7.63518 31.6914 -8.24884C30.142 -9.12354 28.5435 -10.0254 26.8536 -10.6695C21.6921 -12.6326 15.7887 -12.0664 11.062 -9.15406C6.33535 -6.24175 3.03386 -1.1325 2.22974 4.50904C2.08918 5.49902 2.02053 6.50934 1.95842 7.48915C1.85709 9.03176 1.75249 10.6252 1.35043 12.1271C0.73917 14.419 -0.940987 16.8635 -3.32394 17.1516C-5.85398 17.4602 -7.71393 15.5141 -9.68829 13.4528C-10.7506 12.3441 -11.849 11.1982 -13.0813 10.3947C-14.4607 9.49623 -16.0722 9.01481 -17.6282 8.54694C-19.7496 7.91294 -21.7501 7.31285 -23.1917 5.75669C-25.2347 3.54957 -25.6171 -0.193371 -25.9571 -3.49557C-26.0518 -4.40079 -26.1369 -5.25516 -26.2578 -6.05189C-26.333 -6.56044 -26.4049 -7.07238 -26.4768 -7.58094C-27.1306 -12.1952 -27.8072 -16.962 -30.9975 -20.7931C-31.7821 -21.7356 -32.5992 -22.4679 -33.3903 -23.1765C-35.4431 -25.0175 -37.0644 -26.4685 -36.6101 -30.3573C-36.3943 -32.2084 -35.7798 -34.0155 -35.1849 -35.7615C-34.8122 -36.8532 -34.4298 -37.9856 -34.1389 -39.1247C-33.6453 -41.0742 -33.8774 -43.0304 -34.1617 -44.9324H-34.6586C-34.3775 -43.0575 -34.1389 -41.1318 -34.6128 -39.2535C-34.8972 -38.1347 -35.2764 -37.0125 -35.6458 -35.931C-36.2505 -34.1579 -36.8716 -32.3237 -37.0938 -30.4183C-37.5776 -26.2617 -35.7831 -24.6547 -33.7074 -22.7934Z" fill="#51459E"/>
<path d="M-19.8575 101.019C-20.3315 101.717 -21.2337 102.446 -22.1849 103.216C-23.9991 104.68 -26.0552 106.342 -25.6008 108.328C-25.3785 109.298 -24.5973 110.142 -23.5153 110.586C-21.8024 111.288 -19.0272 111.298 -17.0006 111.075C-13.9508 110.736 -10.8945 110.095 -7.93623 109.471C-4.24576 108.695 -0.427811 107.891 3.3836 107.684C11.3823 107.247 18.1978 109.993 21.6169 115.021C21.7379 115.201 21.8588 115.384 21.9798 115.567C22.7872 116.794 23.6207 118.065 25.0198 118.401C25.229 118.452 25.4382 118.476 25.6441 118.476C27.0922 118.476 28.416 117.32 29.0142 116.069C30.0014 114.004 29.6876 111.227 28.2166 108.996C26.7359 106.748 24.4052 105.321 22.7774 104.446C18.6162 102.199 13.9418 100.856 9.25764 100.561C8.51235 100.514 7.73764 100.486 6.98909 100.459C3.24632 100.327 -0.620661 100.188 -3.2455 97.6454C-5.18717 95.7637 -6.18414 92.6107 -5.98148 88.9966C-5.86053 86.7963 -5.35388 84.5993 -4.86683 82.4736C-4.65109 81.5311 -4.42555 80.5547 -4.23596 79.5918C-3.74237 77.0558 -3.2357 73.3027 -4.56284 69.9666C-5.04662 68.7461 -5.75594 67.6341 -6.44239 66.5627C-6.86407 65.9016 -7.30207 65.2167 -7.67798 64.5149C-8.35462 63.2571 -9.36468 60.8296 -8.51152 58.7005C-8.13234 57.7512 -7.41649 56.9511 -6.7235 56.1781C-5.86708 55.222 -4.9845 54.232 -4.68051 52.9301C-4.42881 51.852 -4.68378 50.6586 -5.37676 49.6584C-6.10243 48.6074 -7.21709 47.9192 -8.35463 47.8141C-10.5938 47.6107 -12.8819 49.5296 -13.2415 51.9266C-13.4703 53.4692 -13.0127 54.9779 -12.5714 56.4391C-12.457 56.8155 -12.3426 57.1952 -12.2412 57.5715C-10.3126 64.6811 -13.1663 72.8891 -19.0272 77.0863C-19.1515 77.1745 -19.2789 77.266 -19.4064 77.3542C-20.5766 78.178 -21.9038 79.1104 -22.2045 80.6157C-22.5445 82.321 -21.4167 83.8229 -20.4198 85.1486C-20.2629 85.3554 -20.1059 85.5622 -19.9588 85.769C-17.9191 88.5898 -17.115 92.2514 -17.7524 95.818C-18.0793 97.6725 -18.8115 99.4728 -19.8575 101.019ZM-19.5633 85.4503C-19.7137 85.2435 -19.8706 85.0333 -20.0275 84.8231C-21.0049 83.5246 -22.0149 82.182 -21.7207 80.7072C-21.4592 79.4053 -20.2759 78.5713 -19.1286 77.7644C-18.9978 77.6729 -18.8703 77.5813 -18.7429 77.4932C-12.7185 73.1739 -9.78309 64.7353 -11.764 57.4223C-11.8686 57.0426 -11.983 56.6595 -12.0974 56.2764C-12.5223 54.8728 -12.9636 53.4183 -12.7512 51.9944C-12.4308 49.8483 -10.3976 48.126 -8.39385 48.3125C-7.39687 48.404 -6.41624 49.0177 -5.76902 49.9466C-5.15775 50.8281 -4.93547 51.8689 -5.15121 52.8047C-5.42579 53.9777 -6.22665 54.8762 -7.07654 55.8289C-7.79894 56.6358 -8.54423 57.4698 -8.95609 58.5039C-9.64908 60.2295 -9.34181 62.4502 -8.09967 64.7624C-7.71395 65.4778 -7.27266 66.1694 -6.84445 66.8407C-6.17107 67.8951 -5.47482 68.9834 -5.00739 70.1599C-4.03655 72.6009 -3.94175 75.5641 -4.70992 79.4901C-4.89624 80.4462 -5.11853 81.4192 -5.33754 82.3549C-5.83113 84.501 -6.34106 86.7183 -6.46527 88.9661C-6.67448 92.7294 -5.61865 96.0282 -3.57238 98.0149C-0.813519 100.69 3.14825 100.832 6.97927 100.968C7.72456 100.995 8.49601 101.022 9.23475 101.07C13.8503 101.361 18.456 102.687 22.5551 104.897C24.1339 105.748 26.3959 107.132 27.8146 109.284C29.1875 111.366 29.4849 113.943 28.5762 115.845C27.9747 117.103 26.5626 118.252 25.1309 117.909C23.9182 117.618 23.1402 116.435 22.3884 115.285C22.2642 115.099 22.1432 114.912 22.019 114.733C18.7404 109.915 12.4643 107.135 5.02127 107.135C4.47211 107.135 3.91968 107.149 3.36072 107.179C-0.486652 107.389 -4.32094 108.196 -8.03102 108.976C-10.9762 109.596 -14.0227 110.237 -17.0496 110.573C-18.9259 110.78 -21.6978 110.786 -23.3322 110.118C-24.2671 109.735 -24.9339 109.023 -25.1203 108.216C-25.5027 106.548 -23.6624 105.06 -21.8809 103.623C-20.897 102.829 -19.9687 102.08 -19.4522 101.317C-18.3637 99.7135 -17.6053 97.842 -17.2588 95.9061C-16.6018 92.1937 -17.4419 88.383 -19.5633 85.4503Z" fill="#51459E"/>
<path d="M-24.8327 -19.2475C-23.9795 -17.2133 -23.5971 -14.9689 -23.2244 -12.7991C-22.8812 -10.7852 -22.5216 -8.70018 -21.7927 -6.7609C-19.6974 -1.18717 -14.7027 2.7558 -10.6886 5.92239C-9.42031 6.92253 -8.16183 7.82098 -6.70722 7.82098C-6.67126 7.82098 -6.63203 7.82098 -6.59607 7.82098C-4.76228 7.76334 -3.40574 6.27159 -2.74544 4.89511C-2.09822 3.54236 -1.87267 2.03366 -1.65366 0.572418L-1.57521 0.0604782C-0.797234 -5.00809 1.5563 -14.0095 8.58421 -17.3591C14.759 -20.3019 22.0091 -17.7727 28.282 -14.9113C31.1029 -13.6263 34.2965 -12.1685 37.4313 -12.9686C39.1376 -13.406 40.6184 -14.4705 42.0468 -15.5046C43.6878 -16.6878 45.2372 -17.8066 47.1037 -18.0575C48.0026 -18.1796 48.8982 -18.0847 49.8429 -17.9829C50.4967 -17.9117 51.17 -17.8439 51.8467 -17.8473C53.3896 -17.8643 55.4031 -18.5152 55.9882 -20.2918C56.472 -21.7496 55.7791 -23.1566 55.1057 -24.5161C54.8671 -25.001 54.6186 -25.5027 54.4356 -25.9909C53.4647 -28.5744 54.1283 -31.4528 54.769 -34.2329C54.8834 -34.7245 54.9945 -35.2127 55.0991 -35.6941C55.5764 -37.9283 55.8085 -40.305 54.295 -42.5697C53.7687 -43.3563 53.3503 -44.1496 53.0365 -44.9362H52.5168C52.8469 -44.0479 53.3046 -43.1596 53.893 -42.2815C55.2234 -40.2948 55.1449 -38.2572 54.6219 -35.806C54.5206 -35.3246 54.4061 -34.8397 54.295 -34.3515C53.6347 -31.4935 52.9515 -28.5371 53.9812 -25.8045C54.1741 -25.2925 54.429 -24.7772 54.6742 -24.2822C55.328 -22.96 55.9458 -21.7089 55.5306 -20.4545C55.024 -18.9288 53.2294 -18.3694 51.8467 -18.3525C51.1995 -18.3457 50.5392 -18.4169 49.8985 -18.4847C48.9669 -18.583 48.0026 -18.6881 47.0448 -18.5593C45.0574 -18.2915 43.387 -17.0845 41.769 -15.9182C40.3765 -14.9113 38.9349 -13.8738 37.3169 -13.4602C34.3423 -12.7008 31.2304 -14.1213 28.4814 -15.3758C22.1072 -18.2847 14.7328 -20.8478 8.38155 -17.8202C1.14771 -14.3722 -1.26466 -5.18777 -2.05571 -0.017498L-2.13418 0.494442C-2.34665 1.91839 -2.56564 3.38641 -3.18018 4.66796C-3.92873 6.2343 -5.27549 7.27174 -6.60589 7.31243C-7.9559 7.34972 -9.15881 6.48857 -10.3846 5.51894C-14.3497 2.38965 -19.2823 -1.50247 -21.3285 -6.94398C-22.0411 -8.83918 -22.3941 -10.8971 -22.7341 -12.8873C-23.11 -15.0876 -23.499 -17.3625 -24.375 -19.451C-25.2674 -21.5801 -26.7155 -23.5431 -28.1178 -25.4451C-30.3504 -28.4727 -32.6582 -31.602 -32.7399 -35.4534C-32.766 -36.6705 -32.4915 -37.8944 -32.2234 -39.0743C-31.9913 -40.1016 -31.7527 -41.1661 -31.7004 -42.2443C-31.6579 -43.1427 -31.7266 -44.0479 -31.8246 -44.9362H-32.3182C-32.2201 -44.0513 -32.1482 -43.1529 -32.1907 -42.2714C-32.2398 -41.2373 -32.4751 -40.1965 -32.7039 -39.1929C-32.9785 -37.9792 -33.2596 -36.7248 -33.2335 -35.4432C-33.1485 -31.4257 -30.7917 -28.2286 -28.5101 -25.1366C-27.1306 -23.2583 -25.7022 -21.319 -24.8327 -19.2475Z" fill="#51459E"/>
</g>
</g>
</svg>
