<svg width="23" height="98" viewBox="0 0 23 98" fill="none" xmlns="http://www.w3.org/2000/svg">
<path d="M0.814453 3.38854C0.814453 1.60393 2.26116 0.157227 4.04576 0.157227H5.36707C6.62953 0.157227 7.77638 0.89246 8.30338 2.03967L8.46068 2.38208C9.61367 4.892 13.1803 4.892 14.3333 2.38208L14.4906 2.03967C15.0176 0.89246 16.1644 0.157227 17.4269 0.157227H18.9098C20.6944 0.157227 22.1411 1.60393 22.1411 3.38853V93.8651C22.1411 95.6497 20.6944 97.0964 18.9098 97.0964H4.04576C2.26116 97.0964 0.814453 95.6497 0.814453 93.8651V3.38854Z" fill="#51459E"/>
<mask id="mask0_0_1371" style="mask-type:alpha" maskUnits="userSpaceOnUse" x="0" y="0" width="23" height="98">
<path d="M0.814453 3.38854C0.814453 1.60393 2.26116 0.157227 4.04576 0.157227H5.36707C6.62953 0.157227 7.77638 0.89246 8.30338 2.03967L8.46068 2.38208C9.61367 4.892 13.1803 4.892 14.3333 2.38208L14.4906 2.03967C15.0176 0.89246 16.1644 0.157227 17.4269 0.157227H18.9098C20.6944 0.157227 22.1411 1.60393 22.1411 3.38853V93.8651C22.1411 95.6497 20.6944 97.0964 18.9098 97.0964H4.04576C2.26116 97.0964 0.814453 95.6497 0.814453 93.8651V3.38854Z" fill="white"/>
</mask>
<g mask="url(#mask0_0_1371)">
<g opacity="0.2">
<path d="M-64.2456 181.76C-64.4637 181.58 -64.6819 181.404 -64.8889 181.228C-66.9368 179.479 -68.3304 176.881 -68.7149 174.096C-69.0254 171.873 -68.7555 168.567 -66.9849 166.573C-65.9017 165.353 -64.412 164.695 -62.8335 163.998C-61.3364 163.336 -59.7875 162.655 -58.6083 161.442C-57.6102 160.417 -56.9522 159.093 -56.32 157.811C-55.5105 156.177 -54.749 154.635 -53.3479 153.748C-51.8545 152.799 -49.9988 152.829 -47.9028 152.96C-44.8604 153.147 -41.4078 153.358 -38.5281 154.884C-36.2657 156.082 -34.4839 157.968 -32.5543 160.126L-32.3436 160.363C-30.5988 162.319 -28.7985 164.339 -26.5399 165.712C-23.8561 167.342 -20.8692 167.698 -18.5477 166.658C-17.1319 166.022 -15.9453 164.729 -15.3686 163.191C-14.8769 161.882 -14.8843 160.524 -15.3871 159.372C-15.5312 159.043 -15.7087 158.733 -15.8824 158.431C-16.193 157.892 -16.485 157.387 -16.5478 156.828C-16.7031 155.458 -15.4019 154.283 -14.0378 153.832C-13.4205 153.625 -12.7514 153.507 -12.1082 153.392C-11.2321 153.235 -10.3264 153.074 -9.47615 152.696C-6.43381 151.337 -5.16215 147.729 -4.98841 144.806C-4.87381 142.885 -5.1067 140.957 -5.33219 139.093C-5.47266 137.942 -5.61683 136.748 -5.67228 135.581C-5.94213 130.163 -4.30822 124.554 -1.19565 120.188C-1.08105 120.027 -0.962753 119.866 -0.84446 119.702C0.342163 118.064 1.68774 116.208 1.34395 114.1C1.04452 112.252 -0.389786 111.074 -1.77972 109.937C-2.99962 108.939 -4.14928 107.994 -4.60397 106.643C-4.96254 105.572 -4.82207 104.424 -4.6705 103.203C-4.57809 102.457 -4.48197 101.684 -4.50785 100.919C-4.60396 98.0262 -6.50035 95.1909 -9.45397 93.5189C-12.0971 92.0228 -15.1098 91.5675 -17.9747 91.2308C-24.6472 90.4464 -34.5653 89.773 -43.6664 92.9679C-47.8436 94.4333 -50.7529 96.4153 -52.5642 99.0325C-54.2019 101.397 -54.9264 104.301 -55.5327 107.071C-56.0687 109.528 -56.723 112.773 -57.0298 116.078C-57.1555 117.429 -57.1555 118.784 -57.0298 120.226C-56.9152 121.561 -56.686 122.992 -56.3311 124.607C-55.9578 126.306 -55.6435 127.963 -55.8838 129.589C-56.442 133.384 -60.22 134.529 -63.2919 134.823C-64.9887 134.984 -66.7409 134.907 -68.4302 134.835C-70.2934 134.754 -72.223 134.666 -74.1157 134.896C-77.4538 135.298 -81.7197 137.207 -82.7547 141.251C-83.2871 143.329 -82.8176 145.479 -82.3629 147.553C-81.8786 149.768 -81.4203 151.861 -82.0967 153.84C-83.1909 157.031 -86.7471 158.473 -90.0852 159.46C-93.1201 160.36 -97.2752 161.588 -98.9128 165.1C-99.4858 166.329 -99.6595 167.683 -99.8295 168.992C-99.9626 170.006 -100.096 171.05 -100.417 172.007C-100.658 172.718 -101.012 173.415 -101.356 174.092C-101.911 175.182 -102.487 176.307 -102.635 177.578C-102.957 180.302 -101.242 182.77 -99.6077 184.867C-97.2197 187.935 -94.7725 191.019 -92.3254 194.031C-90.0815 196.797 -87.3903 199.758 -83.8342 199.885C-83.7602 199.889 -83.6826 199.889 -83.6087 199.889C-81.2022 199.889 -78.9805 198.542 -77.1839 197.455L-64.5229 189.787C-62.9925 188.861 -61.5582 187.767 -61.4362 186.064C-61.2994 184.163 -62.8631 182.888 -64.2456 181.76ZM-62.1718 186.003C-62.2679 187.35 -63.5359 188.299 -64.8926 189.121L-77.5536 196.789C-79.3243 197.861 -81.5238 199.188 -83.8046 199.116C-87.0576 199.001 -89.6157 196.173 -91.7561 193.537C-94.1959 190.529 -96.643 187.449 -99.0274 184.385C-100.635 182.318 -102.181 180.095 -101.896 177.666C-101.763 176.537 -101.245 175.519 -100.698 174.444C-100.34 173.744 -99.9737 173.021 -99.715 172.255C-99.3675 171.226 -99.227 170.139 -99.0902 169.091C-98.9202 167.786 -98.7612 166.55 -98.24 165.433C-96.8611 162.475 -93.4972 161.27 -89.8782 160.195C-86.3627 159.154 -82.6032 157.616 -81.3981 154.096C-80.6477 151.911 -81.1541 149.608 -81.6421 147.385C-82.0783 145.399 -82.5256 143.344 -82.0413 141.446C-81.1023 137.773 -77.1395 136.032 -74.0307 135.657C-73.1509 135.55 -72.26 135.516 -71.3654 135.516C-70.3932 135.516 -69.4173 135.558 -68.4598 135.6C-66.7446 135.676 -64.9702 135.753 -63.2217 135.588C-58.5084 135.141 -55.6399 133.052 -55.1519 129.708C-54.8931 127.951 -55.2221 126.214 -55.6103 124.443C-55.9578 122.862 -56.1796 121.466 -56.2942 120.165C-56.4161 118.772 -56.4161 117.464 -56.2942 116.163C-55.991 112.899 -55.3441 109.685 -54.8118 107.251C-54.224 104.558 -53.5217 101.738 -51.9654 99.4916C-50.2465 97.0084 -47.4555 95.1182 -43.4335 93.7063C-34.4729 90.5612 -24.662 91.2308 -18.0634 92.0037C-15.2725 92.3327 -12.3373 92.7727 -9.81623 94.1999C-7.67957 95.409 -5.35809 97.8196 -5.25458 100.957C-5.2324 101.661 -5.32111 102.403 -5.40983 103.119C-5.56509 104.37 -5.72404 105.663 -5.30631 106.907C-4.78139 108.472 -3.49127 109.528 -2.24181 110.549C-0.903618 111.648 0.360649 112.681 0.612015 114.238C0.90036 116.025 -0.289978 117.666 -1.43964 119.254C-1.55793 119.419 -1.67621 119.583 -1.7945 119.748C-5.05494 124.316 -6.69625 129.96 -6.41531 135.634C-6.35616 136.832 -6.2083 138.037 -6.06783 139.204C-5.84602 141.033 -5.61684 142.923 -5.72774 144.775C-5.89039 147.469 -7.03635 150.786 -9.77187 152.007C-10.5408 152.351 -11.3614 152.497 -12.2338 152.653C-12.9029 152.772 -13.5979 152.898 -14.2633 153.12C-15.9194 153.667 -17.4868 155.156 -17.2835 156.935C-17.2021 157.654 -16.8546 158.255 -16.5182 158.841C-16.3482 159.135 -16.1893 159.414 -16.0599 159.705C-15.6385 160.669 -15.6385 161.817 -16.0562 162.935C-16.5626 164.285 -17.6014 165.422 -18.8398 165.973C-20.9468 166.914 -23.686 166.577 -26.1665 165.07C-28.329 163.753 -30.096 161.775 -31.8002 159.862L-32.0109 159.625C-33.9886 157.41 -35.8184 155.473 -38.188 154.218C-41.2081 152.623 -44.7385 152.405 -47.8547 152.213C-50.0764 152.076 -52.0541 152.049 -53.7287 153.113C-55.3072 154.115 -56.1537 155.825 -56.9743 157.478C-57.5806 158.707 -58.209 159.973 -59.1258 160.914C-60.2052 162.024 -61.621 162.648 -63.1219 163.31C-64.7003 164.006 -66.3342 164.729 -67.5283 166.068C-69.4764 168.261 -69.7795 171.831 -69.4468 174.218C-69.0328 177.187 -67.543 179.961 -65.3583 181.832C-65.1476 182.012 -64.9258 182.192 -64.704 182.376C-63.4065 183.42 -62.0646 184.515 -62.1718 186.003Z" fill="#84E8F4"/>
<path d="M-62.0387 177.609C-62.486 177.322 -62.9481 177.027 -63.3769 176.71C-64.0719 176.189 -65.6762 174.793 -65.5542 173.002C-65.4655 171.717 -64.5377 170.668 -63.5137 169.62L-51.9654 157.801C-50.9895 156.802 -49.777 155.562 -48.2983 155.206C-46.328 154.736 -44.3059 155.914 -42.9529 156.982C-40.4355 158.975 -38.4541 161.627 -37.2194 164.646C-37.005 165.166 -36.8091 165.713 -36.6169 166.241C-36.0328 167.864 -35.4266 169.543 -34.2547 170.837C-33.7187 171.426 -33.0829 171.916 -32.4693 172.386C-31.6042 173.052 -30.7873 173.676 -30.2402 174.56C-29.6746 175.47 -29.4195 176.63 -29.1755 177.754C-28.8096 179.434 -28.4288 181.175 -26.976 182.097C-25.6009 182.973 -23.601 182.725 -21.6307 181.435C-21.1723 181.137 -20.7287 180.804 -20.2962 180.483C-19.2575 179.706 -18.2741 178.975 -17.1097 178.631C-16.5034 178.451 -15.875 178.386 -15.2133 178.317C-14.5147 178.244 -13.7901 178.171 -13.0951 177.946C-11.6313 177.471 -10.3522 175.979 -10.781 174.506C-10.9991 173.76 -11.5684 173.236 -12.1192 172.727C-12.707 172.187 -13.2615 171.675 -13.28 170.978C-13.3058 170.09 -12.3854 169.398 -11.4612 169.103C-11.2062 169.023 -10.9474 168.954 -10.6849 168.889C-9.90864 168.69 -9.10275 168.483 -8.47063 167.921C-7.36163 166.941 -7.0807 165.078 -7.72392 162.935C-7.83482 162.568 -7.95679 162.205 -8.08248 161.837C-8.50759 160.594 -8.90683 159.415 -8.75157 158.202C-8.50759 156.316 -6.91805 154.885 -5.62422 154.016C-5.12518 153.68 -4.60764 153.358 -4.11228 153.045C-3.28054 152.52 -2.41923 151.981 -1.60227 151.369C-0.308441 150.397 0.0131683 148.989 0.253456 147.504C0.80056 144.122 0.120369 140.701 -0.533936 137.391L-0.62265 136.944C-1.57269 132.123 -2.0976 127.156 0.493744 123.517C1.23677 122.477 2.24226 121.532 3.21817 120.621C5.14412 118.819 7.13292 116.959 7.10335 114.265C7.07747 111.958 5.53967 110.221 4.04992 108.545C3.21447 107.604 2.35316 106.632 1.76169 105.568C0.756203 103.759 0.5196 101.696 0.268234 99.5153C0.0870972 97.9236 -0.101418 96.2783 -0.61895 94.744C-2.69646 88.5799 -9.32085 85.7676 -14.8252 85.1898C-17.9525 84.8608 -21.139 85.0406 -24.222 85.2166C-26.9095 85.3697 -29.6894 85.5265 -32.4064 85.3429C-35.5338 85.1324 -38.6722 84.4628 -41.7035 83.8162C-44.4057 83.2423 -47.1967 82.6454 -49.9914 82.3699C-57.1518 81.6658 -63.218 83.5943 -66.6411 87.6692C-68.8443 90.2979 -69.968 94.6215 -67.7094 97.4568C-66.752 98.662 -65.3731 99.3508 -64.0386 100.013C-62.693 100.686 -61.4214 101.321 -60.5416 102.439C-58.8781 104.558 -59.2071 107.719 -59.647 110.516L-61.8687 124.604C-62.2162 126.808 -62.608 128.744 -63.9018 130.064C-65.9535 132.165 -69.4505 131.763 -72.0012 131.468C-75.7644 131.036 -79.7494 130.81 -83.4053 132.077C-86.9837 133.316 -89.6638 135.964 -90.7691 139.335C-91.2977 140.954 -91.2829 142.3 -91.2644 143.858C-91.2607 144.206 -91.257 144.566 -91.257 144.941C-91.2644 146.188 -91.3901 147.447 -91.5158 148.66C-91.6415 149.876 -91.7672 151.135 -91.7746 152.383C-91.782 154.785 -93.5379 156.905 -95.0091 158.26C-95.4527 158.669 -95.9222 159.071 -96.3806 159.465C-98.0884 160.93 -99.8517 162.442 -100.724 164.584C-101.249 165.87 -101.397 167.267 -101.537 168.617C-101.663 169.811 -101.792 171.047 -102.188 172.172C-102.487 173.029 -102.935 173.84 -103.364 174.628C-103.937 175.677 -104.532 176.76 -104.816 177.992C-105.304 180.1 -104.957 182.587 -103.811 185.177C-103.179 186.605 -102.373 187.963 -101.593 189.271C-101.016 190.243 -100.421 191.246 -99.8998 192.267C-99.3416 193.369 -98.8536 194.533 -98.3768 195.661C-97.7077 197.257 -97.0127 198.91 -96.107 200.421C-94.6431 202.866 -92.7579 204.687 -90.6508 205.686C-89.2682 206.34 -87.7193 206.677 -86.1335 206.677C-85.2943 206.677 -84.4441 206.581 -83.605 206.394C-81.0136 205.812 -78.7734 204.282 -76.6109 202.805C-75.9418 202.35 -75.2505 201.875 -74.5667 201.447C-73.3911 200.704 -72.223 199.912 -71.0955 199.147C-69.6686 198.175 -68.1973 197.173 -66.6891 196.27C-63.7836 194.529 -60.8521 192.497 -59.111 189.482C-57.4401 186.585 -57.052 182.231 -59.5435 179.515C-60.268 178.742 -61.1663 178.164 -62.0387 177.609ZM-59.5842 189.206C-61.2624 192.111 -64.1236 194.089 -66.9664 195.791C-68.4894 196.702 -69.968 197.712 -71.4023 198.688C-72.5261 199.453 -73.6869 200.241 -74.855 200.98C-75.5463 201.416 -76.2412 201.89 -76.914 202.35C-79.0359 203.8 -81.228 205.296 -83.7196 205.854C-86.0337 206.375 -88.4143 206.138 -90.4179 205.185C-92.4252 204.232 -94.2291 202.487 -95.6338 200.138C-96.5173 198.661 -97.2012 197.031 -97.8666 195.451C-98.3435 194.314 -98.8388 193.136 -99.4044 192.019C-99.9294 190.982 -100.532 189.968 -101.116 188.988C-101.885 187.691 -102.683 186.352 -103.301 184.955C-104.062 183.23 -104.853 180.651 -104.269 178.141C-104.003 176.989 -103.452 175.987 -102.872 174.927C-102.428 174.119 -101.974 173.285 -101.656 172.382C-101.238 171.192 -101.105 169.922 -100.976 168.694C-100.831 167.324 -100.695 166.031 -100.203 164.822C-99.3823 162.809 -97.6707 161.34 -96.0146 159.92C-95.5525 159.526 -95.0793 159.117 -94.6284 158.704C-93.0721 157.273 -91.2164 155.015 -91.209 152.402C-91.2053 151.185 -91.0759 149.941 -90.9539 148.736C-90.8282 147.508 -90.6988 146.234 -90.6914 144.96C-90.6914 144.581 -90.6951 144.217 -90.6988 143.869C-90.7173 142.362 -90.7321 141.061 -90.2331 139.538C-89.1869 136.335 -86.6325 133.821 -83.2205 132.639C-81.2428 131.954 -79.1579 131.717 -77.0545 131.717C-75.3799 131.717 -73.6943 131.866 -72.053 132.054C-69.3914 132.36 -65.7428 132.781 -63.5026 130.489C-62.0942 129.046 -61.6765 127.018 -61.3142 124.715L-59.0925 110.627C-58.6304 107.707 -58.294 104.398 -60.1017 102.094C-61.0591 100.874 -62.4491 100.181 -63.7872 99.5115C-65.1254 98.8419 -66.3897 98.2144 -67.2695 97.1048C-69.3359 94.5106 -68.2676 90.5045 -66.2122 88.0557C-62.9111 84.1223 -57.015 82.2589 -50.0357 82.9515C-47.2706 83.2231 -44.4944 83.8162 -41.807 84.3901C-38.7572 85.0406 -35.6003 85.714 -32.4323 85.9283C-29.682 86.1158 -26.8873 85.9551 -24.1814 85.802C-21.1205 85.6298 -17.9562 85.45 -14.8732 85.7752C-9.53896 86.3339 -3.12528 89.039 -1.13649 94.9468C-0.641136 96.4199 -0.456299 98.0345 -0.275162 99.5957C-0.0274887 101.738 0.223877 103.958 1.28851 105.871C1.90955 106.992 2.79305 107.987 3.65067 108.951C5.13303 110.623 6.53405 112.203 6.55993 114.288C6.58581 116.722 4.77444 118.417 2.85588 120.211C1.86149 121.141 0.830139 122.105 0.0575409 123.192C-2.65949 127.011 -2.13088 132.119 -1.15497 137.074L-1.06625 137.521C-0.423035 140.778 0.246056 144.145 -0.282562 147.424C-0.511757 148.836 -0.789001 150.072 -1.91647 150.917C-2.71126 151.514 -3.56519 152.05 -4.38953 152.566C-4.89228 152.88 -5.40981 153.205 -5.91625 153.546C-7.93832 154.904 -9.07688 156.446 -9.29129 158.137C-9.46503 159.488 -9.02143 160.785 -8.59632 162.04C-8.47433 162.4 -8.35233 162.759 -8.24513 163.115C-8.03073 163.835 -7.43557 166.272 -8.82551 167.496C-9.36153 167.971 -10.0676 168.151 -10.8143 168.342C-11.0842 168.411 -11.3577 168.483 -11.6202 168.564C-12.6626 168.897 -13.8641 169.735 -13.8271 171.005C-13.8012 171.95 -13.1284 172.566 -12.4778 173.163C-11.9603 173.641 -11.4723 174.089 -11.2986 174.678C-10.9659 175.822 -12.0379 177.012 -13.2504 177.402C-13.8899 177.609 -14.5553 177.678 -15.2577 177.751C-15.9157 177.819 -16.5959 177.888 -17.2539 178.083C-18.5107 178.458 -19.5791 179.254 -20.6104 180.023C-21.0355 180.341 -21.4754 180.666 -21.9153 180.957C-22.5844 181.397 -24.9096 182.74 -26.6766 181.615C-27.9261 180.819 -28.2662 179.273 -28.6247 177.636C-28.8798 176.465 -29.146 175.256 -29.7633 174.257C-30.3659 173.285 -31.2604 172.6 -32.1292 171.935C-32.7243 171.479 -33.338 171.005 -33.8407 170.45C-34.9349 169.241 -35.5227 167.615 -36.0883 166.046C-36.2805 165.51 -36.4801 164.959 -36.6982 164.428C-37.9699 161.317 -40.0141 158.585 -42.6055 156.53C-44.6793 154.889 -46.6866 154.234 -48.4129 154.652C-50.0468 155.042 -51.3222 156.347 -52.3461 157.395L-63.8945 169.214C-64.9997 170.343 -65.9978 171.479 -66.0976 172.964C-66.1975 174.426 -65.3214 175.96 -63.6911 177.177C-63.2475 177.506 -62.7781 177.808 -62.3234 178.099C-61.4436 178.661 -60.6155 179.189 -59.939 179.928C-57.6434 182.438 -58.0205 186.494 -59.5842 189.206Z" fill="#84E8F4"/>
<path d="M-53.115 185.127C-52.3868 183.49 -51.3702 180.371 -52.7158 177.88C-53.3664 176.679 -54.4754 175.818 -55.5511 174.988C-56.9115 173.932 -58.1979 172.937 -58.4567 171.357C-58.8301 169.049 -56.6638 167.251 -55.991 166.754C-55.407 166.325 -54.7674 165.939 -54.1501 165.568C-53.1446 164.963 -52.1058 164.339 -51.2408 163.482C-50.8527 163.096 -50.4978 162.663 -50.1577 162.243C-49.5182 161.458 -48.9156 160.72 -48.0987 160.264C-46.0581 159.128 -43.4779 160.349 -42.2506 162.124C-41.1194 163.765 -40.6499 166.065 -40.8533 168.965C-40.9235 169.975 -41.0603 171.005 -41.197 172C-41.3856 173.392 -41.5778 174.835 -41.5926 176.273C-41.6406 180.865 -39.3044 186.092 -34.7464 187.194C-31.9333 187.875 -29.0092 186.765 -26.6581 185.874L-14.3779 181.217C-12.2043 180.391 -10.1711 179.491 -9.1619 177.559C-8.57413 176.43 -8.45953 175.129 -8.35233 173.871C-8.23035 172.47 -8.11576 171.15 -7.39491 170.083C-6.74061 169.115 -5.64272 168.495 -4.58547 167.898C-3.24728 167.14 -1.86474 166.36 -1.30285 164.852C-0.785316 163.459 -1.18826 162.021 -1.5801 160.628C-1.85735 159.641 -2.14567 158.619 -2.09392 157.632C-1.9978 155.834 -0.851837 154.429 0.356964 152.941C1.18501 151.923 2.03893 150.875 2.56015 149.666C3.76895 146.865 3.02963 143.819 2.31248 140.873C1.89106 139.147 1.45856 137.364 1.4142 135.635C1.32918 132.356 2.82262 128.97 5.31046 126.796C5.89083 126.287 6.51187 125.794 7.11442 125.319C9.19933 123.663 11.3582 121.948 12.4302 119.236C13.9347 115.432 12.5855 111.174 11.1881 108.273C10.5782 107.003 9.87212 105.76 9.19193 104.558C8.08664 102.611 6.94439 100.598 6.20136 98.4514C5.70232 97.0128 5.36961 95.4746 5.04801 93.9862C4.51939 91.5489 3.97228 89.0312 2.68584 86.8579C0.28672 82.7983 -4.61503 80.2155 -10.7626 79.7679C-15.1394 79.4465 -19.5569 80.1046 -23.8302 80.7397C-27.135 81.2333 -30.5507 81.7384 -33.9221 81.7919C-37.042 81.8417 -40.2063 81.4973 -43.2672 81.1683C-46.5202 80.8163 -49.8842 80.4528 -53.2148 80.5522C-60.9334 80.7818 -67.2362 83.9691 -70.0789 89.081C-71.9014 92.36 -72.4411 96.634 -71.5946 101.118C-71.1214 103.636 -70.2342 106.257 -68.811 109.372C-68.3156 110.458 -67.702 111.495 -67.1068 112.501C-66.3823 113.73 -65.6319 114.996 -65.1143 116.328C-64.3048 118.401 -64.2604 120.521 -64.9887 122.147C-66.5412 125.606 -70.8959 126.241 -72.6962 126.352C-73.7534 126.417 -74.8402 126.402 -75.8901 126.391C-77.9676 126.364 -80.1153 126.337 -82.1633 126.915C-85.2832 127.799 -87.8968 130.022 -90.1998 131.985C-92.2699 133.749 -94.8465 135.941 -95.7226 139.017C-96.0775 140.265 -96.1218 141.569 -96.1662 142.832C-96.2031 143.865 -96.2401 144.933 -96.4471 145.943C-96.802 147.657 -97.6559 149.249 -98.4803 150.787C-98.7132 151.223 -98.9497 151.659 -99.1715 152.099C-101.26 156.205 -102.458 160.548 -102.632 164.661C-102.735 167.075 -103.131 169.482 -103.815 171.808C-104.144 172.929 -104.657 174.02 -105.153 175.072C-105.67 176.166 -106.203 177.299 -106.535 178.481C-107.641 182.407 -106.084 186.708 -104.949 189.845C-104.768 190.346 -104.587 190.855 -104.402 191.368C-102.639 196.3 -100.817 201.4 -97.63 205.391C-94.8021 208.93 -91.0167 211.234 -85.7121 212.634C-85.0171 212.818 -84.3036 212.91 -83.568 212.91C-81.7714 212.91 -79.8381 212.363 -77.7125 211.261C-75.1618 209.937 -72.9106 207.905 -70.7369 205.942C-70.0235 205.299 -69.2878 204.634 -68.567 204.018C-65.2289 201.171 -61.9685 198.148 -58.867 195.03C-57.6065 193.763 -56.4014 192.501 -55.4735 191.001C-54.7859 189.887 -54.3682 188.632 -53.9616 187.419C-53.7102 186.658 -53.444 185.862 -53.115 185.127ZM-55.943 190.695C-56.8376 192.145 -58.0205 193.381 -59.2552 194.62C-62.3456 197.727 -65.5986 200.742 -68.9219 203.578C-69.6501 204.197 -70.3895 204.867 -71.1066 205.514C-73.2544 207.454 -75.476 209.462 -77.9639 210.752C-80.8362 212.244 -83.3277 212.676 -85.579 212.083C-90.7617 210.714 -94.4546 208.475 -97.2049 205.032C-100.332 201.117 -102.14 196.063 -103.885 191.177C-104.07 190.664 -104.251 190.155 -104.432 189.65C-105.866 185.678 -106.975 182.108 -106.003 178.646C-105.685 177.513 -105.16 176.404 -104.654 175.328C-104.147 174.257 -103.626 173.147 -103.282 171.98C-102.587 169.608 -102.181 167.156 -102.077 164.691C-101.907 160.662 -100.732 156.4 -98.6799 152.371C-98.4581 151.935 -98.2252 151.502 -97.9923 151.07C-97.1458 149.497 -96.2734 147.867 -95.9 146.069C-95.6819 145.009 -95.6412 143.915 -95.6043 142.859C-95.5599 141.631 -95.5156 140.36 -95.1829 139.186C-94.3585 136.278 -91.8522 134.146 -89.8412 132.432C-87.5789 130.508 -85.0171 128.327 -82.0117 127.474C-80.0377 126.915 -77.9306 126.942 -75.8901 126.968C-74.8291 126.984 -73.7312 126.995 -72.6555 126.93C-70.7554 126.812 -66.1568 126.134 -64.4785 122.392C-63.6837 120.625 -63.7244 118.333 -64.5931 116.113C-65.1291 114.736 -65.8906 113.45 -66.6263 112.203C-67.214 111.208 -67.8203 110.183 -68.3045 109.127C-69.7093 106.058 -70.578 103.479 -71.0438 101.011C-71.8644 96.6646 -71.3469 92.5284 -69.591 89.3717C-66.8444 84.4359 -60.7153 81.3519 -53.189 81.13C-49.8953 81.0305 -46.5498 81.394 -43.3152 81.7422C-40.2359 82.0751 -37.0568 82.4195 -33.9036 82.3697C-30.4953 82.3161 -27.0611 81.8072 -23.7378 81.3137C-19.4977 80.6823 -15.1098 80.028 -10.7884 80.3456C-4.82574 80.778 -0.0792465 83.2651 2.22376 87.164C3.46214 89.257 3.99816 91.7287 4.51569 94.1201C4.841 95.6238 5.18108 97.1811 5.69122 98.6504C6.45273 100.847 7.60976 102.882 8.72615 104.853C9.40264 106.047 10.1013 107.279 10.7039 108.534C12.0495 111.331 13.3507 115.421 11.9275 119.025C10.9109 121.596 8.81487 123.261 6.78912 124.872C6.18286 125.354 5.55814 125.851 4.96667 126.368C2.31248 128.683 0.782066 132.157 0.874481 135.662C0.922539 137.452 1.36243 139.27 1.79124 141.026C2.51579 144.007 3.19966 146.823 2.06849 149.444C1.57684 150.58 0.748795 151.598 -0.0533829 152.585C-1.26958 154.077 -2.52643 155.623 -2.63364 157.613C-2.69278 158.696 -2.38966 159.763 -2.10132 160.8C-1.71687 162.162 -1.3583 163.448 -1.80929 164.657C-2.29725 165.966 -3.53191 166.666 -4.84052 167.404C-5.95691 168.036 -7.11028 168.686 -7.83852 169.765C-8.64439 170.955 -8.77007 172.417 -8.89205 173.828C-8.99556 175.03 -9.10277 176.27 -9.63878 177.299C-10.5555 179.055 -12.4889 179.905 -14.5553 180.693L-26.8356 185.349C-29.1164 186.214 -31.9517 187.289 -34.6059 186.646C-38.8349 185.621 -41.0714 180.547 -41.027 176.289C-41.0122 174.888 -40.82 173.465 -40.6351 172.088C-40.4984 171.085 -40.3616 170.048 -40.2877 169.015C-40.0733 165.981 -40.5797 163.555 -41.7885 161.799C-43.1489 159.824 -46.0433 158.485 -48.35 159.767C-49.2594 160.272 -49.9285 161.091 -50.5717 161.883C-50.9044 162.289 -51.2482 162.713 -51.6142 163.077C-52.4312 163.884 -53.4403 164.492 -54.4162 165.078C-55.0447 165.457 -55.6953 165.847 -56.2978 166.291C-58.2719 167.745 -59.2773 169.677 -58.989 171.456C-58.697 173.262 -57.259 174.376 -55.869 175.455C-54.8414 176.251 -53.7804 177.073 -53.1853 178.167C-51.9136 180.521 -53.0559 183.654 -53.6067 184.894C-53.9468 185.659 -54.2129 186.463 -54.4754 187.243C-54.882 188.418 -55.2887 189.639 -55.943 190.695Z" fill="#84E8F4"/>
<path d="M-53.8026 197.796C-50.9377 195.826 -49.6365 191.95 -49.3888 189.229C-49.2187 187.335 -48.9082 185.265 -47.4148 184.653C-46.1358 184.133 -44.7162 185.001 -43.367 185.935C-39.0419 188.939 -35.4081 190.289 -31.9295 190.19C-28.4029 190.086 -25.2386 188.502 -22.1815 186.972C-20.5439 186.153 -18.8545 185.307 -17.1393 184.707C-16.0894 184.339 -14.9139 184.056 -13.6718 183.758C-10.1637 182.916 -6.1861 181.959 -4.30451 178.661C-3.73892 177.67 -3.43209 176.553 -3.14005 175.474C-2.89977 174.59 -2.6484 173.676 -2.25655 172.857C-1.77969 171.854 -1.06993 170.948 -0.386047 170.075C0.390244 169.08 1.1961 168.055 1.69884 166.85C2.42708 165.109 2.44927 163.188 2.47145 161.332C2.48994 159.832 2.50841 158.279 2.90395 156.852C3.28841 155.467 4.03143 154.185 4.75227 152.945C5.43616 151.77 6.14222 150.554 6.56364 149.218C7.49519 146.287 6.98135 143.161 6.4897 140.135L6.36771 139.377C5.84648 136.113 5.57663 132.719 7.13292 130.003C8.11992 128.277 9.62815 127.095 11.2214 125.844C12.4561 124.872 13.7351 123.869 14.7295 122.599C16.4965 120.342 18.1563 116.156 17.7423 112.846C17.4022 110.103 16.0271 107.7 14.8663 105.913C14.4116 105.216 13.9311 104.524 13.4653 103.85C12.5522 102.534 11.6059 101.172 10.8444 99.7334C9.63926 97.4529 8.86295 94.9123 8.11253 92.4559C7.95358 91.9393 7.79833 91.4266 7.63567 90.9139C6.70042 87.9332 5.55815 84.834 3.56197 82.3546C-1.42481 76.1484 -10.8956 76.3703 -18.5883 77.2542C-19.7269 77.3843 -20.8692 77.5335 -22.0114 77.6827C-26.5657 78.2758 -31.2752 78.8842 -35.8776 78.3447C-38.687 78.0156 -41.4817 77.2504 -44.1876 76.5081C-44.975 76.2938 -45.7624 76.0757 -46.5535 75.8691C-52.7454 74.2544 -67.7426 71.8974 -73.295 84.8493C-74.8143 88.3924 -75.2579 92.6357 -74.5851 97.1277C-74.0528 100.667 -72.8477 104.405 -70.7924 108.886C-70.6593 109.173 -70.5299 109.456 -70.3968 109.743C-69.5466 111.568 -68.6668 113.458 -68.2528 115.444C-67.5615 118.769 -68.0753 120.981 -69.8793 122.404C-71.6796 123.823 -74.1083 124.244 -76.2486 124.466C-77.1617 124.562 -78.1043 124.615 -79.0137 124.669C-81.2539 124.799 -83.568 124.937 -85.7379 125.679C-90.7875 127.409 -94.1219 131.843 -97.6596 137.032L-105.911 149.138C-106.753 150.374 -107.8 151.912 -107.87 153.672C-107.936 155.317 -107.156 156.775 -106.406 158.187C-106.125 158.715 -105.833 159.258 -105.596 159.798C-103.674 164.171 -105.02 167.653 -106.58 171.682C-106.731 172.072 -106.883 172.467 -107.034 172.868L-107.507 174.112C-109.156 178.432 -110.86 182.901 -111.141 187.737C-111.426 192.65 -110.539 197.528 -108.639 201.481C-107.116 204.649 -103.493 207.641 -101.467 209.141C-95.1422 213.832 -87.3053 215.657 -80.4591 217.004L-79.6274 217.165C-77.1469 217.639 -74.5445 218.083 -71.9236 218.083C-70.9513 218.083 -69.9754 218.022 -69.0032 217.88C-67.6724 217.685 -64.4342 217.05 -63.0627 215.351C-61.9722 213.997 -62.2051 211.892 -62.4121 210.036C-62.5008 209.237 -62.5858 208.483 -62.5599 207.856C-62.4564 205.38 -61.3512 202.969 -59.61 201.412C-58.6045 200.513 -57.3883 199.851 -56.2165 199.208C-55.4069 198.78 -54.5752 198.328 -53.8026 197.796ZM-59.9649 200.991C-61.8206 202.652 -62.9962 205.212 -63.1071 207.844C-63.1366 208.517 -63.0479 209.294 -62.9555 210.113C-62.7596 211.854 -62.5415 213.832 -63.4804 214.995C-64.7595 216.583 -68.0827 217.18 -69.0697 217.322C-72.5853 217.838 -76.1562 217.253 -79.5165 216.61L-80.3445 216.449C-87.1316 215.118 -94.8982 213.308 -101.131 208.686C-103.116 207.217 -106.661 204.289 -108.129 201.236C-109.984 197.372 -110.853 192.593 -110.576 187.779C-110.302 183.031 -108.687 178.803 -106.979 174.33L-106.506 173.086C-106.354 172.688 -106.203 172.294 -106.051 171.904C-104.447 167.753 -103.057 164.167 -105.079 159.568C-105.326 159.006 -105.622 158.451 -105.907 157.915C-106.657 156.511 -107.363 155.187 -107.304 153.703C-107.241 152.111 -106.243 150.649 -105.445 149.475L-97.1938 137.368C-93.7153 132.264 -90.4401 127.906 -85.5531 126.23C-83.4497 125.511 -81.1726 125.377 -78.9694 125.247C-78.0526 125.193 -77.1063 125.136 -76.1821 125.04C-73.9641 124.811 -71.443 124.371 -69.5318 122.863C-66.9109 120.797 -67.2288 117.571 -67.6983 115.325C-68.1271 113.271 -69.0217 111.35 -69.883 109.494C-70.0161 109.211 -70.1492 108.924 -70.2785 108.641C-72.3117 104.214 -73.502 100.529 -74.0269 97.0435C-74.685 92.6625 -74.2561 88.5301 -72.7812 85.0865C-67.4026 72.5326 -52.738 74.8513 -46.6828 76.4315C-45.8955 76.6382 -45.1118 76.8524 -44.3244 77.0667C-41.6037 77.8128 -38.7868 78.5819 -35.9367 78.9186C-31.2715 79.4658 -26.5287 78.8497 -21.9412 78.2567C-20.8026 78.1074 -19.6641 77.962 -18.5255 77.8281C-10.9696 76.9596 -1.67989 76.7338 3.13684 82.7257C5.07019 85.1324 6.19027 88.1705 7.10704 91.0975C7.26599 91.6064 7.42496 92.123 7.58022 92.6357C8.33803 95.1189 9.12542 97.6863 10.3564 100.017C11.1327 101.486 12.0901 102.863 13.0143 104.195C13.4764 104.861 13.9569 105.549 14.4042 106.242C15.528 107.975 16.8625 110.301 17.1915 112.926C17.5686 115.964 16.016 120.051 14.297 122.247C13.3433 123.464 12.0938 124.447 10.885 125.396C9.31764 126.628 7.69851 127.898 6.65236 129.72C5.00735 132.593 5.2809 136.11 5.81691 139.48L5.9389 140.242C6.41947 143.196 6.91852 146.253 6.03133 149.05C5.62839 150.32 4.93711 151.51 4.27171 152.658C3.53239 153.928 2.77089 155.241 2.36796 156.702C1.95023 158.206 1.93174 159.794 1.91325 161.332C1.89108 163.215 1.86891 164.994 1.18873 166.628C0.715553 167.76 -0.0644608 168.755 -0.818573 169.719C-1.52094 170.618 -2.24918 171.548 -2.75562 172.608C-3.16964 173.477 -3.42471 174.418 -3.67607 175.325C-3.9755 176.415 -4.25645 177.444 -4.78506 178.374C-6.54467 181.458 -10.2339 182.346 -13.8012 183.203C-15.0581 183.505 -16.2447 183.788 -17.3241 184.167C-19.0689 184.776 -20.7768 185.633 -22.4292 186.459C-25.4345 187.963 -28.5434 189.52 -31.9517 189.62C-35.3157 189.719 -38.8386 188.395 -43.0638 185.46C-44.5314 184.439 -46.0951 183.494 -47.6255 184.121C-49.411 184.852 -49.7585 187.113 -49.947 189.176C-50.1836 191.77 -51.4146 195.458 -54.1168 197.318C-54.8672 197.835 -55.6842 198.282 -56.4753 198.715C-57.6693 199.369 -58.9114 200.046 -59.9649 200.991Z" fill="#84E8F4"/>
<path d="M72.327 59.7332C72.9406 59.4577 73.5912 59.2243 74.2233 58.9947C75.6761 58.4705 77.1807 57.9272 78.3673 56.8559C80.4152 55.0039 81.0326 52.1075 81.5279 49.0541C81.8347 47.1716 81.99 44.8567 80.4818 43.6323C79.5613 42.8862 78.3968 42.8633 77.2731 42.8441C76.5855 42.8326 75.8757 42.8173 75.2436 42.6375C72.8999 41.9641 71.7947 39.1365 71.2845 36.8828C71.2106 36.5576 71.1403 36.2285 71.0701 35.8957C70.5858 33.6267 70.0831 31.2812 68.4344 29.6933C66.5454 27.8682 63.9023 27.7304 61.3442 27.6003C60.0282 27.5315 58.6642 27.4626 57.4221 27.1603C55.6958 26.7433 54.0877 25.8479 52.5314 24.9794C51.086 24.172 49.5889 23.3379 47.9771 22.8673C44.3729 21.815 40.351 22.7066 37.4787 25.1936C36.4695 26.0698 35.6045 27.1259 34.769 28.1475C33.7488 29.3987 32.6915 30.6919 31.3866 31.6102C30.5105 32.2263 29.5087 32.6854 28.5439 33.1254C27.5754 33.5693 26.5699 34.0284 25.6679 34.6559C23.0655 36.4619 21.524 39.3661 21.3354 42.8288C21.0915 47.2252 22.9915 51.8779 26.178 54.6787C29.468 57.5752 34.2182 58.9986 39.2124 58.5891C43.2233 58.2601 47.4892 56.8138 52.2542 54.166L52.4612 54.0512C53.3706 53.5423 54.3132 53.0181 55.315 52.8421C56.472 52.6355 57.5884 52.9952 58.154 53.7528C58.8601 54.694 58.679 55.9414 58.4867 57.2614C58.3426 58.2563 58.1947 59.2817 58.4128 60.2536C58.6494 61.2905 59.2889 62.159 60.2685 62.7598C61.1816 63.3222 62.3164 63.613 63.4661 63.613C64.065 63.613 64.6638 63.5327 65.2368 63.372C66.7857 62.9358 68.1867 62.0902 69.5434 61.2752C70.438 60.7242 71.3695 60.1656 72.327 59.7332ZM65.0852 62.8133C63.5696 63.2419 61.7878 63.0238 60.5457 62.2585C59.6992 61.7381 59.1484 60.9959 58.9488 60.112C58.7529 59.2473 58.8933 58.2754 59.0301 57.338C59.2297 55.9567 59.4368 54.5295 58.5865 53.3931C58.0209 52.6355 57.0302 52.2031 55.9471 52.2031C55.7068 52.2031 55.4629 52.2261 55.2152 52.2682C54.1247 52.4633 53.1414 53.0105 52.1913 53.5385L51.9843 53.6533C47.2896 56.2628 43.0976 57.6861 39.1607 58.0114C34.3107 58.4093 29.7083 57.0357 26.5292 54.2349C23.4721 51.545 21.6496 47.076 21.8825 42.8556C22.0637 39.5765 23.5164 36.8293 25.971 35.1266C26.836 34.5259 27.8156 34.0782 28.762 33.6458C29.7527 33.1943 30.7767 32.7237 31.6934 32.0771C33.0649 31.1128 34.1443 29.789 35.1905 28.5072C36.0111 27.5047 36.8577 26.4678 37.8299 25.6222C40.5617 23.2537 44.3914 22.4043 47.8219 23.4068C49.3745 23.8621 50.8458 24.6809 52.2653 25.4729C53.8548 26.3606 55.4998 27.2751 57.2964 27.7075C58.5902 28.0174 59.9765 28.0901 61.3184 28.1628C63.8875 28.2967 66.3162 28.423 68.0573 30.1027C69.5803 31.572 70.0609 33.8295 70.5304 36.0104C70.6006 36.3433 70.6746 36.6762 70.7485 37.0053C71.2956 39.412 72.4896 42.4347 75.0995 43.1847C75.8018 43.3874 76.5448 43.3989 77.2694 43.4142C78.3525 43.4334 79.3728 43.4563 80.1491 44.08C81.4281 45.1169 81.2692 47.229 80.9882 48.9546C80.5076 51.9009 79.9199 54.6902 78.0087 56.4197C76.8997 57.4221 75.5135 57.9195 74.0459 58.4514C73.4064 58.681 72.741 58.922 72.1126 59.2052C71.1219 59.649 70.1792 60.2191 69.2624 60.7701C67.9353 61.5698 66.5639 62.3963 65.0852 62.8133Z" fill="#84E8F4"/>
<path d="M80.8921 83.1044C82.2894 81.2793 82.6665 78.6966 81.8495 76.5233C81.454 75.4749 80.8145 74.5566 80.1934 73.6727C79.8903 73.2403 79.5761 72.7888 79.2989 72.3335C78.7222 71.3884 77.8498 69.5633 78.5004 67.9563C78.7998 67.2178 79.3617 66.6516 79.9568 66.0508C80.4596 65.5458 80.9771 65.0216 81.3394 64.3749C82.2155 62.8253 82.0048 61.0231 81.8015 59.2784C81.6795 58.2338 81.5538 57.151 81.661 56.1409C81.8717 54.2048 82.9548 52.4906 84.001 50.83C84.3448 50.2829 84.6996 49.7204 85.0213 49.1541C86.3594 46.7972 87.1616 43.5104 85.4057 41.3486C84.0897 39.7301 81.9863 39.4814 79.9495 39.2365C77.9976 39.0031 76.153 38.785 74.9294 37.4764C74.1235 36.6117 73.7724 35.4485 73.4027 34.2203C73.2142 33.5966 73.0182 32.95 72.7595 32.3454C70.7078 27.5818 65.1185 25.9671 60.0356 24.8307C55.3224 23.7746 49.7146 21.9495 48.1472 17.1399C47.5853 15.4219 47.6408 13.5012 47.6962 11.6416C47.7628 9.29229 47.833 6.85879 46.6611 4.80027C45.4671 2.70349 43.0643 1.2763 40.0663 0.886026C38.218 0.644973 36.3364 0.782721 34.5177 0.912813C33.8264 0.962554 33.1129 1.01612 32.4106 1.0429C28.4921 1.21126 25.509 0.549311 23.2984 -0.973536C20.866 -2.64943 19.0435 -6.20401 20.2043 -9.2497C20.2856 -9.46015 20.378 -9.67059 20.4741 -9.88103C20.7477 -10.4971 21.0323 -11.1322 21.0175 -11.8439C21.0027 -12.5556 20.7033 -13.1907 20.1488 -13.6805C19.0842 -14.6218 17.3061 -14.859 16.016 -14.6753C13.0549 -14.2583 10.7482 -12.8349 9.6799 -10.7725C8.19015 -7.89138 9.04407 -4.21819 12.286 0.465137C14.663 3.89728 16.8884 7.5437 15.772 11.0371C15.2027 12.8239 13.8275 14.2052 12.5004 15.5405C12.0162 16.0265 11.5171 16.5277 11.0587 17.0481C9.18454 19.1678 7.98683 22.3168 9.53573 24.5628C10.6706 26.2081 12.6372 26.5181 14.541 26.8203C15.5687 26.981 16.6333 27.1494 17.5538 27.5244C20.4741 28.7143 21.2393 32.0087 20.9806 34.6947C20.8475 36.076 20.6331 37.4803 20.4261 38.8347C20.0564 41.2415 19.6756 43.7323 19.7311 46.2232C19.8716 52.4906 24.1597 55.5057 28.3073 58.4175C29.786 59.4544 31.3127 60.5296 32.6398 61.7387C33.1314 62.1863 33.6083 62.7029 34.063 63.2041C35.1905 64.4323 36.3549 65.7065 37.9666 66.1733C39.7706 66.6975 41.5635 66.0623 43.2972 65.4463C44.3914 65.0598 45.5189 64.6581 46.6353 64.5509C50.1989 64.2181 53.2227 66.8773 54.7125 68.4882C55.7032 69.5633 56.6088 70.7609 57.4849 71.9165C58.5311 73.3016 59.6142 74.7326 60.86 75.9799C62.3904 77.5104 64.1685 78.7693 65.8874 79.986C66.7302 80.5829 67.599 81.199 68.427 81.8341C68.6821 82.0292 68.9371 82.232 69.1922 82.4348C70.9333 83.8084 72.7373 85.2318 74.9257 85.5532C75.2141 85.5953 75.5024 85.6144 75.7944 85.6144C77.7389 85.6336 79.6759 84.6923 80.8921 83.1044ZM74.9996 85.0022C72.9517 84.7 71.2106 83.3263 69.5212 81.9948C69.2625 81.792 69.0074 81.5892 68.7486 81.3903C67.9132 80.7436 67.0371 80.1276 66.1942 79.5269C64.4938 78.3216 62.7342 77.0781 61.237 75.582C60.0172 74.3615 58.9488 72.9457 57.9137 71.5798C57.0302 70.4128 56.1172 69.2037 55.1043 68.1094C53.6367 66.5176 50.7349 63.9655 47.2415 63.9655C47.0234 63.9655 46.8016 63.977 46.5761 63.9961C45.3932 64.1071 44.2288 64.5203 43.105 64.9183C41.3749 65.5305 39.741 66.1121 38.1034 65.6376C36.6396 65.2129 35.5786 64.0535 34.4548 62.8253C33.9891 62.3164 33.5048 61.7884 32.9947 61.3216C31.6417 60.0895 30.1002 59.0067 28.6067 57.9583C24.3889 54.9968 20.4076 52.196 20.2745 46.2232C20.219 43.7859 20.5998 41.3218 20.9621 38.938C21.1728 37.5721 21.3872 36.1602 21.5239 34.7636C21.8012 31.8672 20.9584 28.3087 17.7497 27.004C16.7701 26.6061 15.6759 26.43 14.6186 26.2655C12.7481 25.9709 10.9774 25.6916 9.97933 24.2414C8.60787 22.2556 9.73535 19.3974 11.458 17.446C11.9053 16.941 12.3969 16.4436 12.8738 15.9653C14.249 14.5802 15.6722 13.1491 16.2858 11.2284C17.5833 7.1649 14.6593 2.93689 12.7222 0.139904C9.61705 -4.34828 8.77793 -7.82634 10.1531 -10.4932C11.1327 -12.3911 13.2915 -13.7035 16.0751 -14.0976C17.2432 -14.2621 18.8402 -14.0593 19.7754 -13.2328C20.2116 -12.8502 20.4371 -12.3719 20.4482 -11.8209C20.4593 -11.2432 20.2153 -10.6922 19.9566 -10.1144C19.8568 -9.89251 19.7606 -9.67442 19.6756 -9.45249C18.3633 -6.0127 20.4002 -2.2668 22.9804 -0.487595C25.2908 1.10412 28.3812 1.79284 32.4217 1.62449C33.1314 1.59388 33.8486 1.54414 34.5436 1.49057C36.3364 1.36048 38.1884 1.22656 39.985 1.45996C42.8092 1.82728 45.0679 3.15117 46.1732 5.0949C47.2637 7.01185 47.2009 9.25402 47.1306 11.6301C47.0752 13.5394 47.0197 15.5138 47.6112 17.3274C49.271 22.4087 55.0562 24.3065 59.9099 25.3931C64.8561 26.5027 70.3012 28.06 72.2456 32.5788C72.4933 33.1528 72.6818 33.7841 72.8667 34.3925C73.24 35.6322 73.6282 36.914 74.5265 37.8782C75.8868 39.336 77.92 39.577 79.8829 39.8104C81.8976 40.0515 83.8014 40.2772 84.9769 41.7197C86.548 43.652 85.7791 46.6747 84.537 48.8633C84.2228 49.4181 83.8716 49.9768 83.5278 50.5163C82.4484 52.2304 81.3283 54.0058 81.1028 56.0758C80.9845 57.1548 81.1176 58.2683 81.2433 59.3473C81.4466 61.0729 81.6351 62.7029 80.8551 64.0841C80.5298 64.6619 80.0603 65.1364 79.5613 65.6376C78.9514 66.2536 78.3229 66.8888 77.9791 67.7344C77.2324 69.5786 78.1861 71.5989 78.822 72.6396C79.1103 73.1103 79.4282 73.5656 79.7351 74.0056C80.3635 74.9009 80.9549 75.7466 81.3246 76.7299C82.0713 78.7157 81.7275 81.0765 80.4522 82.7448C79.1806 84.4168 77.0365 85.2969 74.9996 85.0022Z" fill="#84E8F4"/>
<path d="M76.9662 106.582C78.9144 105.798 80.0307 103.908 81.1102 102.075L81.3726 101.631C82.367 99.9628 83.6904 98.2142 85.9491 97.9005C86.426 97.8354 86.9324 97.8316 87.424 97.8278C88.7142 97.8201 90.0487 97.8125 91.1761 96.7028C94.0226 93.8905 91.8711 90.841 90.1374 88.3884C89.5977 87.6231 89.0875 86.9038 88.729 86.2189C86.1339 81.2869 85.28 77.2923 86.0341 73.6535C86.2559 72.586 86.6293 71.5261 86.9915 70.5007C87.4832 69.1079 87.9896 67.6693 88.1449 66.1541C88.2484 65.1478 88.1966 64.13 88.1449 63.1466C88.0747 61.8151 88.0118 60.5563 88.3001 59.328C88.8362 57.0591 90.4479 55.3526 92.1557 53.5466C93.8599 51.7444 95.6232 49.8811 96.2036 47.4016C97.124 43.4721 94.6473 39.5999 92.019 37.2889C90.6327 36.0683 89.0765 35.0429 87.5756 34.0519C86.0896 33.0723 84.5518 32.0584 83.2025 30.8646C82.0085 29.8124 80.9106 28.5765 79.8496 27.3827C78.0383 25.3471 76.1641 23.2427 73.7428 21.9341C70.6043 20.2391 66.9927 20.1014 63.503 19.9674C62.5641 19.933 61.5956 19.8947 60.6566 19.8259C57.5108 19.6001 55.9582 18.1117 55.9101 15.2688C55.888 13.9717 56.1985 12.6631 56.4942 11.3928C56.594 10.9719 56.6938 10.5511 56.7788 10.1302C57.0857 8.66854 57.3925 6.51053 56.5312 4.6701C54.4758 0.26992 50.7089 -2.61507 46.4541 -3.05509C46.1288 -3.08952 45.8072 -3.10866 45.4819 -3.12779C44.835 -3.16605 44.225 -3.2043 43.6262 -3.34587C42.8092 -3.53719 42.1032 -3.91216 41.5339 -4.45167C40.4138 -5.51154 39.8223 -7.24482 39.9111 -9.21151C40.0589 -12.5059 41.2825 -15.5746 42.4617 -18.5437C43.2898 -20.6214 44.1437 -22.7679 44.6391 -24.9986C45.3119 -28.0175 44.8239 -30.803 43.3046 -32.6473C40.2253 -36.3779 33.0833 -36.3511 29.4015 -33.7072C28.6252 -33.1485 27.8711 -32.521 27.1391 -31.9126C25.228 -30.3209 23.4203 -28.8134 21.1617 -28.3734C18.5444 -27.8645 15.9124 -28.9473 13.3618 -29.9919C12.7962 -30.2253 12.2306 -30.4548 11.6687 -30.6691C9.65401 -31.4382 4.66354 -32.8769 1.80973 -29.7049C0.526997 -28.2777 0.124063 -26.3569 -0.26778 -24.4974C-0.604176 -22.9057 -0.947974 -21.2604 -1.84996 -19.9977C-3.18075 -18.1305 -5.48007 -17.3653 -7.70175 -16.623C-8.35606 -16.4049 -9.03253 -16.1791 -9.67575 -15.9266C-12.8844 -14.6754 -15.7308 -11.6603 -14.6847 -8.5381C-13.9195 -6.24235 -11.6572 -5.46562 -9.47244 -4.71185C-8.09359 -4.23739 -6.67038 -3.74381 -5.60944 -2.8829C-2.71866 -0.533588 -3.00332 4.19948 -4.49307 7.60484C-5.14368 9.09325 -5.9939 10.5281 -6.81825 11.9132C-7.979 13.8722 -9.1804 15.8963 -9.86428 18.1385C-11.1027 22.202 -9.87168 27.398 -6.05674 28.6568C-2.78151 29.7358 0.833805 28.6454 3.62107 27.574C5.60617 26.8126 8.10882 26.9656 9.57269 27.9375C10.3933 28.4808 10.8406 29.2308 10.9072 30.1644C11.0107 31.6375 10.068 32.8657 9.06993 34.1705C8.71875 34.6296 8.35279 35.1041 8.04227 35.59C6.15329 38.5209 5.75405 41.184 6.70039 44.486C7.68369 47.922 9.72424 50.9103 11.5873 53.3782C15.0696 57.9927 19.0509 62.2322 23.4203 65.9857C23.9452 66.4372 24.4739 66.9117 25.0284 67.4129C26.3739 68.6297 27.7676 69.8847 29.1945 70.8336C30.1112 71.4419 31.0724 71.8781 31.9965 72.2952C33.5602 73.0031 35.0352 73.6688 36.2366 75.1037C38.0406 77.254 38.5655 80.9846 36.4362 82.8977C35.8891 83.3875 35.2274 83.7127 34.5287 84.0609C33.8116 84.4129 33.0723 84.7802 32.4475 85.3389C30.2295 87.3362 30.4329 90.9214 31.7489 93.2783C33.1166 95.7271 35.4936 97.3839 37.5896 98.8455C39.6042 100.25 41.8888 101.841 43.1604 104.195C43.4192 104.677 43.6447 105.209 43.8628 105.717C44.3212 106.796 44.7943 107.914 45.6519 108.759C46.8238 109.911 48.406 110.275 49.9364 110.627C50.5759 110.772 51.2339 110.925 51.8438 111.132C52.9195 111.495 53.9509 112.077 54.9453 112.639C55.7918 113.117 56.6679 113.611 57.5921 113.986C58.4867 114.349 59.5292 114.594 60.5605 114.594C61.8211 114.594 63.0631 114.227 63.9947 113.259C64.7895 112.436 65.1813 111.342 65.5621 110.286C65.9539 109.199 66.3236 108.17 67.0888 107.474C68.4011 106.28 70.2309 106.513 72.1717 106.762C73.7871 106.972 75.4617 107.187 76.9662 106.582ZM72.2567 106.008C70.242 105.752 68.1534 105.484 66.5935 106.907C65.6878 107.734 65.2663 108.901 64.8597 110.03C64.4901 111.055 64.1426 112.023 63.4624 112.727C62.0133 114.231 59.5328 113.967 57.8509 113.282C56.9711 112.926 56.1171 112.444 55.2891 111.977C54.2651 111.399 53.2042 110.803 52.0656 110.416C51.4224 110.198 50.7459 110.041 50.0916 109.892C48.5945 109.548 47.1786 109.222 46.1547 108.216C45.4043 107.478 44.9792 106.479 44.5319 105.423C44.3064 104.895 44.0772 104.348 43.7999 103.831C42.4432 101.317 39.9776 99.5993 37.9962 98.218C35.963 96.8023 33.6637 95.1991 32.381 92.9034C31.1944 90.7798 31.0761 87.5887 32.9244 85.9205C33.4715 85.4269 34.1332 85.1016 34.8356 84.7573C35.549 84.4053 36.2883 84.0418 36.9094 83.4831C39.3676 81.2754 38.8168 77.0359 36.7837 74.6101C35.4751 73.0451 33.8523 72.3105 32.2812 71.6027C31.3792 71.1971 30.4477 70.7724 29.5826 70.1984C28.2038 69.2801 26.8323 68.0442 25.5052 66.8466C24.9433 66.3416 24.4147 65.8633 23.8824 65.4041C19.5536 61.685 15.613 57.4838 12.1603 52.9153C10.3416 50.5047 8.3491 47.5929 7.39906 44.2794C6.50817 41.1763 6.87044 38.7849 8.64853 36.0262C8.94426 35.5671 9.29914 35.1041 9.64293 34.6564C10.6854 33.2943 11.7611 31.89 11.6354 30.1185C11.5541 28.9476 10.9737 27.9758 9.96453 27.3024C8.99601 26.6596 7.68 26.3305 6.31224 26.3305C5.31415 26.3305 4.29018 26.5065 3.35493 26.8662C0.678556 27.8954 -2.7815 28.9438 -5.83863 27.9375C-9.22845 26.8202 -10.2968 22.091 -9.16561 18.3796C-8.50761 16.2254 -7.33208 14.2434 -6.19351 12.3226C-5.35807 10.9145 -4.49674 9.46058 -3.82395 7.93008C-2.21961 4.26453 -1.95347 -0.866474 -5.15846 -3.47215C-6.31921 -4.41723 -7.80525 -4.92994 -9.24325 -5.42353C-11.3503 -6.15052 -13.3428 -6.83541 -13.9897 -8.77532C-14.9361 -11.6067 -11.8863 -14.2354 -9.41698 -15.1996C-8.78855 -15.4445 -8.12315 -15.6664 -7.47624 -15.8845C-5.14366 -16.665 -2.72976 -17.4686 -1.2548 -19.5347C-0.256707 -20.9313 0.105566 -22.6569 0.456748 -24.3252C0.844895 -26.1656 1.21087 -27.9027 2.35313 -29.1769C4.90381 -32.016 9.53941 -30.6615 11.4136 -29.9459C11.9681 -29.7355 12.53 -29.5059 13.0882 -29.2764C15.735 -28.1897 18.4742 -27.0648 21.2947 -27.6158C23.7382 -28.0902 25.7012 -29.7279 27.5975 -31.3081C28.3184 -31.9088 29.0614 -32.5287 29.8155 -33.0682C33.2497 -35.5323 39.8889 -35.5897 42.7353 -32.1422C44.103 -30.4893 44.5318 -27.9448 43.9108 -25.1631C43.4302 -22.9937 42.5874 -20.8777 41.7705 -18.8307C40.5654 -15.8003 39.3196 -12.6666 39.1643 -9.24212C39.0645 -7.04968 39.7447 -5.09447 41.0274 -3.88155C41.6928 -3.25022 42.5098 -2.81786 43.4561 -2.59594C44.1141 -2.43906 44.7832 -2.4008 45.4339 -2.35871C45.7481 -2.33958 46.066 -2.32045 46.3765 -2.28984C50.4317 -1.87278 53.8881 0.786469 55.8621 5.00682C56.6236 6.6368 56.3353 8.62262 56.0506 9.97329C55.9656 10.3865 55.8658 10.8036 55.7697 11.2168C55.4591 12.5331 55.1412 13.8914 55.1634 15.2879C55.2189 18.5096 57.0968 20.3424 60.6012 20.5949C61.5512 20.6638 62.5271 20.7021 63.4698 20.7365C66.8818 20.8666 70.4047 21.0005 73.3953 22.6152C75.7057 23.8626 77.4505 25.8254 79.3025 27.9031C80.3819 29.1122 81.4946 30.3634 82.7219 31.4462C84.1119 32.6744 85.6718 33.6998 87.1801 34.6947C88.6624 35.6704 90.1928 36.6805 91.5421 37.8705C94.0004 40.0361 96.3293 43.629 95.4864 47.2218C94.9541 49.4946 93.3387 51.2011 91.6308 53.0109C89.9304 54.8131 88.1708 56.6726 87.5867 59.1444C87.2725 60.4797 87.3427 61.8572 87.4093 63.1849C87.4573 64.1415 87.5091 65.1286 87.4093 66.0699C87.2614 67.4933 86.7919 68.8248 86.2966 70.2367C85.9269 71.2851 85.5461 72.3717 85.3133 73.489C84.2671 78.5205 86.3927 83.3722 88.0821 86.5824C88.4665 87.3132 88.9877 88.0517 89.5422 88.8361C91.2649 91.2734 93.0467 93.7949 90.666 96.1442C89.7566 97.0434 88.6218 97.051 87.4203 97.0548C86.9065 97.0587 86.3779 97.0587 85.853 97.1314C83.2764 97.4872 81.7719 99.5036 80.7479 101.218L80.4854 101.665C79.4689 103.387 78.4153 105.166 76.7038 105.855C75.3693 106.402 73.7871 106.203 72.2567 106.008Z" fill="#84E8F4"/>
<path d="M78.1824 93.8555C78.5187 93.9052 78.8662 93.9741 79.1989 94.043C79.9309 94.1922 80.685 94.3491 81.4539 94.2955C83.4316 94.1654 85.2097 92.5469 85.5941 90.5343C85.9194 88.8278 85.3502 87.2552 84.7957 85.7362C84.5443 85.0474 84.2855 84.3319 84.1266 83.6317C83.9011 82.6599 83.9935 81.8066 84.0896 80.9036C84.1968 79.9088 84.3077 78.8834 83.9454 77.724C83.6053 76.6297 83.0693 75.5239 82.5518 74.4564C81.2099 71.6862 79.9383 69.0729 81.4613 66.2338C81.7533 65.6867 82.1673 65.1854 82.5629 64.6995C83.1063 64.0375 83.6682 63.3488 83.9787 62.507C84.4371 61.2635 84.2633 59.9396 84.1007 58.6578C84.0267 58.0954 83.9528 57.5138 83.9343 56.9552C83.8641 54.8622 85.0175 52.5741 86.1338 50.3625C88.0376 46.586 90.0079 42.6833 86.4961 39.1861C85.132 37.8239 83.2542 37.4069 81.4391 37.0013C80.0455 36.6913 78.6075 36.3661 77.4208 35.62C75.6649 34.5142 75.0587 33.022 74.4192 31.4417C74.0939 30.6382 73.7538 29.8041 73.2547 28.9776C73.1512 28.8055 73.0366 28.6371 72.9109 28.4726C71.1735 26.1692 67.8502 24.9563 65.5029 24.2484C64.4567 23.9308 63.3773 23.6592 62.3348 23.399C60.0725 22.8289 57.7288 22.2396 55.6291 21.1568C51.8585 19.2207 50.1322 16.2362 50.1877 11.771C50.2357 7.9218 49.9141 3.21935 46.9679 0.977163C45.2563 -0.323759 43.0531 -0.499763 40.9239 -0.668118C38.595 -0.851778 36.3955 -1.02779 34.8503 -2.56594C32.466 -4.94204 33.2422 -9.17004 34.9723 -12.0971C35.6118 -13.1761 36.3733 -14.2169 37.1126 -15.2193C38.4508 -17.0406 39.8297 -18.9231 40.5505 -21.1347C41.2492 -23.2736 40.946 -25.9367 39.8038 -27.7579C38.9905 -29.055 37.852 -29.805 36.5101 -29.9351C34.3771 -30.1417 32.6397 -28.7489 30.9577 -27.4059C30.2849 -26.8664 29.59 -26.3116 28.8839 -25.8754C25.9968 -24.0809 22.6366 -24.0503 19.0767 -24.0159C17.062 -23.9967 14.9808 -23.9776 12.9994 -23.6065C7.41378 -22.5619 2.74491 -18.7701 -1.37315 -15.426C-3.89796 -13.3789 -6.70371 -10.5972 -6.01244 -7.25691C-5.4986 -4.78133 -3.3065 -3.39241 -1.18832 -2.0494C0.896589 -0.729343 2.86691 0.521837 3.39553 2.70662C4.19031 6.0125 1.42892 8.70618 -1.24375 11.3119C-2.58564 12.6204 -3.85728 13.8563 -4.61509 15.1266C-5.58361 16.7528 -6.22682 19.236 -5.11783 21.3366C-3.83879 23.7586 -0.922149 24.4588 1.29584 24.6195C6.1865 24.9716 12.2712 25.4116 13.3506 31.4609C13.6722 33.2592 13.3728 35.0461 13.0549 36.94C12.907 37.8277 12.7517 38.7499 12.6704 39.6605C11.9902 47.3551 16.8144 52.8266 20.5036 56.2741C28.3738 63.632 35.6303 69.819 44.7129 70.963C45.249 71.0319 45.7961 71.0816 46.3247 71.1276C47.8181 71.2615 49.3596 71.4031 50.7532 71.9617C52.5239 72.6734 54.2244 74.4449 54.0543 76.4537C53.9139 78.1181 52.487 79.6677 50.2394 80.5975C49.6628 80.8348 49.0528 81.0414 48.465 81.2442C47.112 81.7033 45.7184 82.1778 44.5503 83.0808C42.4469 84.7069 41.3231 87.745 41.7556 90.6376C42.1512 93.293 43.7333 95.7877 46.0955 97.4904C48.7238 99.3844 51.999 100.111 54.8861 100.754L55.1818 100.819C57.3185 101.298 60.0281 101.902 62.638 101.902C65.0149 101.902 67.3105 101.401 69.0221 99.8474C69.7281 99.2084 70.1532 98.3857 70.5599 97.5937C70.9776 96.7825 71.3731 96.0173 72.0422 95.4395C73.532 94.1539 75.9385 93.5302 78.1824 93.8555ZM71.6947 94.9957C70.9406 95.65 70.5044 96.4994 70.0793 97.3221C69.6764 98.1064 69.2956 98.8449 68.6635 99.415C65.2811 102.484 59.2777 101.144 55.3038 100.257L55.0081 100.192C52.1691 99.5604 48.953 98.8449 46.4171 97.016C44.1769 95.4051 42.6798 93.0443 42.3064 90.5458C41.9072 87.8559 42.9422 85.0398 44.8867 83.5361C45.9809 82.6867 47.2747 82.2505 48.6425 81.7837C49.2413 81.5809 49.8587 81.3704 50.4501 81.1255C51.6256 80.6396 54.3797 79.2163 54.6088 76.4996C54.8122 74.1044 52.8603 72.1874 50.9566 71.4222C49.489 70.833 47.9068 70.6876 46.3727 70.5498C45.8478 70.5039 45.3044 70.4541 44.7795 70.3891C35.8558 69.2642 28.6732 63.1384 20.8733 55.8455C17.2727 52.4784 12.5632 47.1447 13.2212 39.7103C13.2988 38.8226 13.4504 37.9157 13.5983 37.0357C13.9088 35.1762 14.2304 33.2516 13.8903 31.3537C12.7296 24.8721 6.14213 24.3938 1.3291 24.0456C-0.752116 23.8964 -3.47653 23.2536 -4.63727 21.0573C-5.63167 19.171 -5.03651 16.9097 -4.14931 15.4212C-3.42847 14.216 -2.1864 13.0069 -0.87039 11.7251C1.7875 9.13472 4.80395 6.19999 3.92785 2.56505C3.34747 0.150692 1.18493 -1.2191 -0.903669 -2.54298C-3.01445 -3.88216 -5.01064 -5.14483 -5.47272 -7.38318C-6.10115 -10.4136 -3.42847 -13.0345 -1.03304 -14.9821C3.03696 -18.2842 7.64667 -22.0301 13.0992 -23.0478C15.0326 -23.4113 17.0916 -23.4266 19.0804 -23.4458C22.5589 -23.4764 26.1521 -23.5108 29.1686 -25.3857C29.9005 -25.841 30.6102 -26.4073 31.2941 -26.9544C32.8541 -28.2018 34.3364 -29.3841 36.085 -29.3841C36.2069 -29.3841 36.3326 -29.3765 36.4546 -29.365C37.9259 -29.2234 38.8316 -28.2439 39.3343 -27.448C40.3916 -25.7645 40.6651 -23.3042 40.0219 -21.3222C39.3306 -19.1986 37.9776 -17.3544 36.6653 -15.5714C35.9186 -14.5536 35.146 -13.5052 34.4954 -12.3994C32.6508 -9.28483 31.8523 -4.75073 34.4621 -2.15653C36.1515 -0.47681 38.5543 -0.2855 40.8758 -0.101841C42.9275 0.0626888 45.0493 0.231047 46.6352 1.43249C49.3781 3.51779 49.6775 8.04425 49.6295 11.7557C49.5703 16.4658 51.3965 19.6148 55.3778 21.6618C57.5329 22.7715 59.9061 23.3684 62.1981 23.9461C63.2331 24.2063 64.3052 24.478 65.3402 24.7917C68.9075 25.8707 71.24 27.1908 72.4673 28.8208C72.5782 28.97 72.6854 29.123 72.7779 29.2799C73.2547 30.0643 73.5837 30.8755 73.9016 31.6598C74.5781 33.3281 75.2177 34.9007 77.1251 36.1059C78.3894 36.9018 79.8754 37.2347 81.3134 37.5561C83.1322 37.9617 84.8511 38.3481 86.1006 39.5955C89.3129 42.7942 87.5238 46.3411 85.6311 50.0947C84.4814 52.3713 83.2948 54.7283 83.3688 56.9743C83.3872 57.5597 83.4649 58.1566 83.5388 58.7305C83.7014 59.997 83.8567 61.1908 83.4501 62.3004C83.1728 63.0542 82.6664 63.6702 82.1304 64.3283C81.7163 64.8334 81.2875 65.3576 80.9659 65.9545C79.3024 69.0576 80.6961 71.9311 82.0453 74.7128C82.5555 75.7611 83.0804 76.844 83.4094 77.9C83.7347 78.9408 83.6349 79.8629 83.5314 80.8386C83.4353 81.7492 83.3318 82.6905 83.5794 83.7618C83.7495 84.4965 84.012 85.2273 84.2707 85.9351C84.8178 87.4465 85.3354 88.8775 85.0433 90.4233C84.7069 92.1872 83.1469 93.6068 81.4132 93.7216C80.7146 93.7675 80.027 93.6259 79.3024 93.4767C78.9624 93.4078 78.6075 93.3351 78.2526 93.2854C75.8683 92.9448 73.2917 93.6144 71.6947 94.9957Z" fill="#84E8F4"/>
<path d="M74.7261 112.356C76.1714 111.426 77.9754 111.319 79.7239 111.216C80.0085 111.2 80.2932 111.181 80.5778 111.162C84.0564 110.909 90.4959 109.723 94.5438 104.573C98.1036 100.043 98.0778 94.2231 94.4735 88.1815C93.7859 87.0298 92.9062 85.901 92.0559 84.8067C89.594 81.6463 87.0433 78.3748 88.7215 74.0856C89.0358 73.2783 89.5422 72.5781 90.0745 71.8358C90.6549 71.0284 91.2574 70.1905 91.5864 69.2071C92.0818 67.7225 91.8785 66.1538 91.6789 64.6386C91.5199 63.418 91.3573 62.1592 91.568 60.9731C92.0855 58.0651 94.2702 56.3662 96.5806 54.5717C98.1887 53.3206 99.8558 52.0273 100.891 50.2863C103.741 45.5035 99.0204 39.2974 95.1537 36.2938C93.7675 35.2148 92.3479 34.2084 90.9728 33.2366C87.8565 31.0288 84.914 28.9435 82.2524 26.0547C81.8051 25.5688 81.3615 25.0714 80.9216 24.574C79.4245 22.8866 77.8793 21.1456 76.0199 19.8179C73.9498 18.3448 71.3621 18.142 68.8595 17.9431C65.636 17.6905 62.59 17.4533 60.6381 14.6946C59.1853 12.6437 59.4885 10.0266 59.8101 7.26019C60.1058 4.6966 60.4126 2.04119 59.226 -0.189518C57.9359 -2.61153 55.3704 -3.6714 52.89 -4.69301C50.6498 -5.61514 48.332 -6.5717 47.0086 -8.52691C45.2268 -11.1555 45.5225 -14.9014 47.918 -19.9827L48.088 -20.3462C49.7959 -23.9658 51.7329 -28.0637 50.4539 -31.9589C48.3135 -38.4826 39.3233 -39.3703 33.6231 -37.9163C32.1851 -37.549 30.7582 -37.109 29.3756 -36.6843C24.6661 -35.2303 20.2227 -33.8605 15.2766 -35.1385C14.2157 -35.414 13.0808 -35.8425 11.8794 -36.2978C7.93136 -37.7939 3.45841 -39.4927 -0.00904274 -36.0874C-2.0348 -34.1015 -2.2566 -31.14 -2.4747 -28.2818C-2.64844 -25.9823 -2.82958 -23.6062 -3.93118 -21.7198C-5.73884 -18.6167 -8.94012 -17.6219 -12.3262 -16.5659C-15.3649 -15.6208 -18.5034 -14.6413 -20.5661 -12.0088C-23.6121 -8.12898 -21.0134 -4.96468 -18.4996 -1.90751C-16.9397 -0.00968933 -15.3279 1.95319 -15.0729 4.0691C-14.7291 6.92348 -16.363 9.57889 -17.9414 12.1463C-19.653 14.928 -21.4237 17.8053 -20.7324 20.9849C-20.104 23.8929 -17.6827 25.7142 -15.3427 27.4781C-13.1765 29.1081 -10.9363 30.7954 -10.1859 33.3169C-9.57965 35.3525 -10.0528 37.6062 -10.5112 39.7871C-11.0583 42.3813 -11.6202 45.0597 -10.3633 47.3899C-8.81074 50.2672 -5.25457 50.9751 -3.27316 51.1396C-2.42294 51.2123 -1.55423 51.2314 -0.715092 51.2506C1.07409 51.2926 2.92979 51.3309 4.63764 51.8857C8.40083 53.1025 11.6206 56.6303 12.6483 60.6593C13.6649 64.6348 16.0603 68.9049 19.7717 73.351L19.8456 73.439C20.4556 74.1698 21.084 74.9235 21.2393 75.8189C21.45 77.0701 20.7292 78.172 19.9676 79.339C19.4058 80.1961 18.8254 81.0838 18.5888 82.0825C17.8827 85.0478 20.3928 87.6841 21.9527 88.9888C22.2152 89.2069 22.4813 89.425 22.7512 89.6469C24.4738 91.0512 26.2556 92.5052 26.8286 94.6019C27.2389 96.1018 26.9469 97.7968 26.7103 99.1552C26.4368 100.735 26.1521 102.369 26.5514 103.961C27.2759 106.865 29.9412 107.845 32.5178 108.793C34.0445 109.352 35.4825 109.884 36.5027 110.779C37.7152 111.847 38.3991 113.343 39.1237 114.931C39.6708 116.132 40.24 117.372 41.057 118.405C42.6983 120.467 45.4375 122.491 48.5131 122.491C48.8939 122.491 49.2783 122.461 49.6665 122.396C50.7422 122.216 51.7588 121.784 52.7421 121.367C53.8733 120.888 54.9379 120.433 56.0912 120.322C57.6808 120.169 59.3221 120.693 60.9117 121.198C63.0151 121.868 65.1924 122.564 67.2551 121.673C69.2809 120.8 70.3566 118.753 71.3954 116.775C72.2826 115.091 73.2067 113.331 74.7261 112.356ZM70.9037 116.519C69.865 118.497 68.8853 120.364 67.037 121.16C65.1591 121.967 63.1703 121.336 61.0706 120.666C59.4293 120.142 57.7363 119.603 56.0358 119.767C54.8011 119.886 53.6441 120.376 52.5277 120.85C51.5739 121.256 50.5869 121.673 49.5741 121.845C46.2656 122.4 43.2232 120.253 41.4784 118.057C40.7021 117.081 40.1513 115.872 39.619 114.705C38.9019 113.136 38.1625 111.51 36.8576 110.362C35.7634 109.398 34.2034 108.824 32.6989 108.273C30.2591 107.378 27.7343 106.448 27.0837 103.838C26.7177 102.365 26.9876 100.797 27.25 99.2776C27.494 97.8619 27.8008 96.0942 27.3535 94.468C26.7325 92.1914 24.8768 90.68 23.0839 89.2184C22.8178 89.0003 22.5516 88.7822 22.2928 88.5641C20.8363 87.3435 18.4853 84.8947 19.1174 82.2393C19.3318 81.3402 19.8826 80.4946 20.4186 79.6796C21.2097 78.4705 22.0304 77.2193 21.779 75.7385C21.6015 74.6825 20.9177 73.8675 20.2597 73.0793L20.1857 72.9913C16.5298 68.6102 14.1713 64.4167 13.1806 60.5292C12.1049 56.3165 8.73722 52.628 4.8003 51.3539C3.01482 50.7761 1.12215 50.734 -0.707691 50.6919C-1.53944 50.6728 -2.39706 50.6537 -3.23251 50.5848C-5.10301 50.4279 -8.45587 49.7698 -9.88647 47.1259C-11.0398 44.987 -10.5223 42.5267 -9.97518 39.9249C-9.50201 37.6712 -9.01037 35.341 -9.66098 33.1601C-10.4668 30.4549 -12.7809 28.714 -15.0211 27.0266C-17.3833 25.2474 -19.6123 23.5676 -20.1964 20.8701C-20.8322 17.9239 -19.202 15.2723 -17.4757 12.4639C-15.8418 9.80846 -14.1561 7.06504 -14.5221 4.00405C-14.7993 1.71595 -16.4665 -0.315788 -18.0782 -2.27483C-20.555 -5.28608 -22.8913 -8.12898 -20.1373 -11.6415C-18.1817 -14.1362 -15.1246 -15.0889 -12.1673 -16.0072C-8.82922 -17.048 -5.37286 -18.1231 -3.458 -21.4137C-2.28986 -23.4187 -2.10504 -25.8636 -1.9239 -28.2283C-1.7058 -31.1094 -1.49878 -33.8261 0.371723 -35.6627C3.5878 -38.8193 7.89069 -37.1893 11.6871 -35.7507C12.9033 -35.2877 14.053 -34.8553 15.1435 -34.5722C20.2338 -33.2521 24.7548 -34.6487 29.5346 -36.1218C30.9097 -36.5465 32.3329 -36.9865 33.7561 -37.35C39.0941 -38.7122 47.9254 -37.8781 49.9289 -31.7675C51.1341 -28.0982 49.2488 -24.1074 47.589 -20.5911L47.4189 -20.2276C44.9274 -14.9435 44.6464 -11.0063 46.5539 -8.1902C47.9734 -6.09724 50.3689 -5.10625 52.683 -4.15351C55.1819 -3.12425 57.544 -2.14856 58.7381 0.0936241C59.8397 2.16362 59.5439 4.72338 59.2556 7.19897C58.9377 9.95769 58.605 12.8082 60.1871 15.0428C62.2905 18.0158 65.6064 18.276 68.8151 18.5247C71.2438 18.716 73.7575 18.9111 75.702 20.3C77.5096 21.5895 79.0326 23.3075 80.5076 24.9719C80.9512 25.4731 81.3948 25.9705 81.8458 26.4603C84.548 29.3912 87.5127 31.4918 90.6549 33.7187C92.0226 34.6906 93.4385 35.693 94.8173 36.7606C98.5213 39.6379 103.068 45.538 100.414 49.9917C99.4307 51.637 97.8116 52.8997 96.2442 54.1202C93.9486 55.9033 91.5754 57.7514 91.0172 60.8774C90.788 62.1515 90.958 63.4601 91.1244 64.7228C91.3203 66.238 91.5088 67.6728 91.0578 69.0273C90.7584 69.9265 90.2076 70.6917 89.6272 71.4991C89.0949 72.2375 88.5478 72.9989 88.204 73.8752C86.4037 78.4781 89.0579 81.8797 91.6197 85.1702C92.4625 86.2492 93.3312 87.3665 94.0003 88.4876C96.0113 91.8547 98.6988 98.3784 94.1113 104.217C90.1965 109.199 83.927 110.351 80.5372 110.596C80.2562 110.615 79.9753 110.634 79.6906 110.649C77.8756 110.756 75.9977 110.867 74.434 111.874C72.789 112.922 71.8316 114.751 70.9037 116.519Z" fill="#84E8F4"/>
<path d="M71.998 126.077C72.9258 125.779 73.8869 125.871 74.8148 125.959C76.4524 126.116 78.1492 126.28 79.1805 123.996C79.6648 122.921 79.8533 121.715 80.0345 120.548C80.3043 118.823 80.5557 117.197 81.6906 115.957C82.5075 115.065 83.7015 114.583 84.7551 114.155C85.8197 113.726 86.9509 113.351 88.1486 112.953C91.9192 111.706 95.8191 110.416 98.1517 107.21C101.719 102.305 100.133 95.1421 98.8652 91.312C97.9003 88.3926 96.9688 86.2958 95.93 84.7117C95.6195 84.2411 95.2868 83.7628 94.9504 83.2807C92.7029 80.0552 90.3777 76.7187 92.9727 73.0034C93.1649 72.7241 93.372 72.4524 93.579 72.1769C94.3405 71.163 95.1279 70.1146 95.3608 68.8175C95.5086 68.0101 95.4162 67.1952 95.3275 66.4069C95.2905 66.0855 95.2572 65.7641 95.2351 65.4427C95.1648 64.2681 95.4051 63.4225 95.967 62.8485C97.1425 61.6547 99.623 61.869 101.615 62.0374C102.188 62.0871 102.732 62.133 103.22 62.1483C107.456 62.2555 111.519 58.1078 111.892 53.2447C112.169 49.5906 110.691 45.6878 107.83 42.535C105.937 40.4459 103.608 38.8235 101.36 37.2509C99.9039 36.2332 98.3994 35.1848 97.0316 34.0216C94.248 31.6531 91.9007 28.7146 89.6346 25.8679C88.5626 24.5248 87.4536 23.1321 86.3114 21.8159C81.7941 16.616 77.4135 13.7348 72.9184 13.0078C72.5783 12.9543 72.2271 12.9045 71.8723 12.8586C70.2236 12.6405 68.5194 12.4148 67.4991 11.198C66.6156 10.142 66.5232 8.71096 66.4234 7.19194C66.3606 6.23537 66.2977 5.24438 66.0242 4.32608C65.2331 1.68597 62.9301 0.170776 60.701 -1.29467C59.093 -2.35455 57.4295 -3.44885 56.3205 -4.96022C54.8085 -7.02256 54.4241 -9.91138 55.3409 -12.3181C56.2096 -14.6062 57.57 -15.2681 59.2926 -16.1061C59.8397 -16.3701 60.4016 -16.6456 60.993 -16.9938C63.3293 -18.3674 64.0687 -22.0329 63.9836 -25.0021C63.8838 -28.4534 62.7083 -31.7057 61.5697 -34.847C60.0763 -38.9717 58.3832 -43.6474 55.3852 -47.2402C52.7458 -50.4007 48.1657 -53.4005 43.2417 -52.3406C40.6615 -51.7858 38.4694 -50.1979 36.3512 -48.6598C34.6581 -47.4316 32.9059 -46.1612 30.9726 -45.4381C26.0043 -43.5709 20.9843 -45.3692 15.6722 -47.2709C12.4154 -48.4379 9.04779 -49.6431 5.66536 -49.9416C0.815357 -50.3701 -4.46345 -48.3078 -8.12683 -44.5542C-11.2838 -41.3172 -12.8585 -37.2958 -12.5628 -33.2285C-12.4741 -32.008 -12.2338 -30.7376 -12.0046 -29.5094C-11.4242 -26.4178 -10.8771 -23.4984 -12.4445 -21.1261C-14.4222 -18.134 -18.0634 -18.2794 -21.919 -18.4363C-24.5547 -18.5434 -27.2792 -18.6505 -29.6302 -17.759C-32.3288 -16.7374 -34.3139 -13.994 -34.8203 -10.6078C-35.3231 -7.2177 -34.2214 -3.98453 -31.948 -2.17089C-30.4509 -0.9771 -28.5397 -0.219498 -26.6914 0.511314C-23.5973 1.73571 -20.677 2.89507 -19.9931 5.91397C-19.4053 8.50817 -20.9357 10.8384 -22.5585 13.3025C-24.1481 15.7206 -25.7894 18.2192 -25.2756 21.0238C-24.9244 22.937 -23.6416 24.3909 -22.4033 25.8028C-21.7638 26.5298 -21.0984 27.2874 -20.5771 28.0909C-18.3554 31.5192 -18.5403 36.0304 -19.0652 40.3961L-19.1465 41.0695C-19.653 45.1904 -20.1742 49.4567 -18.5773 53.26C-16.7511 57.6066 -12.7846 59.2595 -6.44856 58.3106C-1.12169 57.5147 3.18121 58.3029 6.33815 60.6561C6.95549 61.1152 7.49889 61.6203 8.00164 62.1981C8.84817 63.1699 9.49137 64.2413 10.2566 65.6532C10.8517 66.7551 11.6798 67.6505 12.482 68.519C13.1067 69.1963 13.7536 69.8927 14.2785 70.6809C15.5982 72.6552 16.1675 74.7941 15.8829 76.6957C15.7202 77.7747 15.2803 78.8346 14.8552 79.86C14.2379 81.3446 13.5984 82.8828 13.7758 84.5319C14.0309 86.9539 15.8607 88.5724 17.624 90.1412C18.9474 91.3158 20.3151 92.5287 21.0397 94.0745C21.8566 95.8231 21.7864 97.7669 21.7125 99.8254C21.6681 101.031 21.6238 102.278 21.7753 103.483C22.0674 105.844 23.0839 107.983 24.0672 110.049C24.8768 111.752 25.8823 113.875 27.7269 114.981C28.9173 115.697 30.2961 115.892 31.6306 116.083C33.002 116.278 34.2959 116.462 35.4012 117.158C37.7929 118.662 38.4139 121.968 38.7281 125.316L39.7225 135.888C39.9259 138.053 40.1366 140.288 40.9794 142.358C41.5376 143.732 42.4655 144.723 43.3637 145.679C43.9811 146.337 44.6169 147.018 45.1196 147.81L45.3895 148.235C46.8127 150.489 48.1583 152.616 50.2802 154.372C53.0711 156.68 56.546 157.835 59.9025 157.835C63.2369 157.835 66.453 156.695 68.756 154.411C72.5081 150.699 73.6873 144.363 71.6948 138.65C71.425 137.874 71.096 137.101 70.7817 136.355C70.1644 134.893 69.5249 133.385 69.3031 131.805C68.9852 129.525 69.902 126.751 71.998 126.077ZM68.756 131.901C68.9889 133.558 69.6432 135.103 70.279 136.596C70.5895 137.334 70.9148 138.096 71.1773 138.853C73.0958 144.359 71.9721 150.447 68.3789 154.005C63.9466 158.394 55.9878 158.359 50.6314 153.932C48.576 152.234 47.2563 150.144 45.859 147.929L45.5891 147.504C45.0568 146.666 44.4025 145.966 43.7667 145.289C42.8647 144.325 42.0108 143.414 41.4932 142.144C40.6837 140.158 40.4767 137.962 40.277 135.842L39.2826 125.27C38.9536 121.773 38.2919 118.31 35.6895 116.676C34.4844 115.919 33.0723 115.716 31.7045 115.521C30.3626 115.329 29.0984 115.15 28.0042 114.491C26.3074 113.47 25.3389 111.434 24.5626 109.8C23.6015 107.773 22.6071 105.68 22.3261 103.414C22.182 102.255 22.2263 101.034 22.267 99.8522C22.3409 97.8128 22.4149 95.7045 21.5387 93.8297C20.7662 92.1767 19.354 90.9217 17.9863 89.7088C16.223 88.1477 14.5595 86.6707 14.3266 84.4745C14.1676 82.9746 14.748 81.5742 15.3653 80.0934C15.8052 79.0336 16.2599 77.9393 16.4337 76.7876C16.7405 74.7405 16.1379 72.4562 14.7369 70.3595C14.1861 69.5368 13.5244 68.8213 12.8849 68.1288C12.0716 67.2487 11.3027 66.4184 10.7408 65.3815C9.95715 63.9352 9.29546 62.8332 8.41566 61.8231C7.88704 61.2147 7.31406 60.6829 6.66345 60.2008C3.38453 57.7596 -1.05146 56.937 -6.5262 57.752C-12.5813 58.655 -16.3556 57.113 -18.0671 53.038C-19.6049 49.3763 -19.0911 45.1942 -18.5957 41.1461L-18.5144 40.4688C-17.9747 35.9921 -17.7936 31.3547 -20.115 27.7695C-20.6585 26.9315 -21.3349 26.1625 -21.9892 25.4164C-23.2313 24.0045 -24.4069 22.6691 -24.7285 20.9167C-25.2016 18.3455 -23.6934 16.0535 -22.1001 13.6277C-20.4847 11.1674 -18.8101 8.62679 -19.4534 5.78771C-20.2038 2.47036 -23.4014 1.20387 -26.4918 -0.0205269C-28.3031 -0.736038 -30.1736 -1.47834 -31.6079 -2.62238C-33.7224 -4.30976 -34.7464 -7.33249 -34.2732 -10.5159C-33.8 -13.6994 -31.948 -16.2668 -29.4417 -17.2157C-27.1941 -18.0689 -24.5251 -17.9618 -21.9412 -17.8585C-17.9303 -17.6978 -14.1376 -17.5447 -11.9861 -20.7971C-10.2894 -23.3683 -10.8845 -26.5441 -11.4612 -29.6127C-11.6904 -30.8256 -11.9233 -32.0768 -12.012 -33.263C-12.2966 -37.1581 -10.781 -41.0188 -7.73868 -44.1372C-4.18621 -47.7759 0.933643 -49.777 5.6136 -49.3638C8.92579 -49.0692 12.2602 -47.8754 15.4873 -46.7199C20.659 -44.868 26.0043 -42.9548 31.1611 -44.8909C33.161 -45.6409 34.9428 -46.9341 36.6654 -48.1853C38.8354 -49.7579 40.8833 -51.2425 43.3527 -51.7743C47.2193 -52.6046 51.7773 -50.6762 54.9638 -46.8614C57.8989 -43.3451 59.4996 -38.922 61.0485 -34.6442C62.1723 -31.545 63.3293 -28.3386 63.4254 -24.983C63.5031 -22.3084 62.8414 -18.7424 60.7158 -17.4912C60.1465 -17.1545 59.592 -16.8866 59.056 -16.6264C57.2927 -15.7694 55.7734 -15.0309 54.8233 -12.5285C53.84 -9.93817 54.254 -6.83125 55.8806 -4.61203C57.0487 -3.01649 58.7566 -1.89539 60.4053 -0.808735C62.6454 0.668198 64.7636 2.06094 65.4955 4.50209C65.7506 5.35534 65.8135 6.31191 65.8726 7.23403C65.9724 8.77984 66.0759 10.3754 67.0814 11.5768C68.2422 12.9619 70.0535 13.1992 71.802 13.4326C72.1495 13.4785 72.497 13.5244 72.8334 13.5779C77.1991 14.2858 81.4725 17.1058 85.901 22.2061C87.0359 23.5147 88.1412 24.8998 89.2095 26.239C91.4941 29.1049 93.8599 32.0664 96.6841 34.4693C98.0741 35.6516 99.5897 36.7076 101.054 37.733C103.279 39.2865 105.578 40.8935 107.43 42.9329C110.184 45.971 111.608 49.713 111.341 53.2064C110.998 57.7175 107.312 61.5859 103.405 61.5859C103.349 61.5859 103.294 61.5859 103.238 61.5821C102.765 61.5667 102.233 61.5247 101.667 61.4749C99.4529 61.2836 96.9429 61.0693 95.5862 62.4468C94.9098 63.1317 94.6066 64.1571 94.688 65.4848C94.7065 65.8177 94.7471 66.1544 94.7804 66.4796C94.8654 67.2602 94.9504 67.9948 94.8173 68.718C94.6066 69.8773 93.8969 70.8263 93.1428 71.8287C92.9321 72.1081 92.7213 72.3874 92.5254 72.6705C89.6975 76.7225 92.2519 80.388 94.5031 83.6212C94.8358 84.0995 95.1648 84.574 95.4716 85.0408C96.4697 86.556 97.4087 88.6719 98.3403 91.5033C99.3309 94.4993 101.25 101.999 97.7081 106.87C95.4827 109.931 91.6678 111.189 87.9785 112.41C86.7697 112.808 85.6312 113.187 84.5518 113.623C83.4428 114.07 82.1896 114.579 81.2876 115.563C80.0382 116.929 79.7572 118.723 79.4874 120.456C79.3099 121.585 79.1288 122.748 78.6778 123.751C77.8128 125.668 76.5116 125.545 74.8666 125.385C73.8832 125.289 72.8704 125.193 71.8353 125.526C69.3659 126.322 68.4048 129.402 68.756 131.901Z" fill="#84E8F4"/>
<path d="M-42.21 63.2158C-42.746 64.0041 -43.7663 64.8267 -44.842 65.6953C-46.8936 67.3482 -49.2188 69.2231 -48.705 71.4652C-48.4536 72.5595 -47.5701 73.5123 -46.3465 74.0135C-44.4095 74.8055 -41.271 74.817 -38.9791 74.5645C-35.5301 74.1819 -32.0738 73.4587 -28.7283 72.7547C-24.5548 71.8785 -20.2371 70.9716 -15.9268 70.7383C-6.88112 70.2447 0.826397 73.3439 4.69309 79.0182C4.82986 79.221 4.96664 79.4277 5.10341 79.6343C6.01648 81.0194 6.95913 82.4542 8.54129 82.833C8.77787 82.8904 9.01447 82.9172 9.24736 82.9172C10.885 82.9172 12.3821 81.6124 13.0586 80.2006C14.175 77.8704 13.8201 74.7367 12.1566 72.219C10.482 69.6822 7.84632 68.0714 6.00539 67.0842C1.29956 64.5474 -3.98664 63.0322 -9.28393 62.6993C-10.1268 62.6457 -11.0029 62.6151 -11.8494 62.5845C-16.0821 62.4353 -20.4552 62.2784 -23.4236 59.4087C-25.6194 57.2852 -26.7469 53.7268 -26.5177 49.648C-26.3809 47.1647 -25.8079 44.6853 -25.2571 42.2863C-25.0132 41.2226 -24.7581 40.1206 -24.5437 39.034C-23.9855 36.1719 -23.4125 31.9363 -24.9134 28.1712C-25.4605 26.7938 -26.2626 25.5388 -27.0389 24.3297C-27.5158 23.5836 -28.0111 22.8107 -28.4363 22.0186C-29.2015 20.5991 -30.3437 17.8595 -29.3789 15.4566C-28.9501 14.3853 -28.1405 13.4823 -27.3568 12.6099C-26.3883 11.5309 -25.3902 10.4136 -25.0464 8.94436C-24.7618 7.72761 -25.0501 6.38077 -25.8338 5.25203C-26.6545 4.0659 -27.915 3.28917 -29.2015 3.17055C-31.7337 2.94098 -34.3213 5.10664 -34.728 7.81179C-34.9867 9.55273 -34.4692 11.2554 -33.9701 12.9045C-33.8408 13.3292 -33.7114 13.7578 -33.5968 14.1825C-31.4158 22.2061 -34.6429 31.4695 -41.271 36.2064C-41.4115 36.3059 -41.5557 36.4092 -41.6998 36.5086C-43.0232 37.4384 -44.5241 38.4906 -44.8642 40.1895C-45.2486 42.1141 -43.9733 43.8091 -42.8458 45.3052C-42.6684 45.5386 -42.4909 45.772 -42.3246 46.0054C-40.0179 49.1888 -39.1085 53.3212 -39.8293 57.3464C-40.199 59.4393 -41.027 61.4711 -42.21 63.2158ZM-41.8773 45.6457C-42.0473 45.4123 -42.2248 45.1751 -42.4022 44.9379C-43.5075 43.4724 -44.6498 41.9572 -44.3171 40.2928C-44.0213 38.8235 -42.6831 37.8823 -41.3856 36.9716C-41.2378 36.8683 -41.0936 36.765 -40.9494 36.6655C-34.1365 31.7909 -30.8169 22.2674 -33.0571 14.0141C-33.1754 13.5856 -33.3047 13.1532 -33.4341 12.7209C-33.9147 11.1368 -34.4137 9.49533 -34.1735 7.88831C-33.8112 5.4663 -31.5119 3.52257 -29.2458 3.73301C-28.1183 3.83632 -27.0094 4.52886 -26.2774 5.57725C-25.5862 6.57208 -25.3348 7.74674 -25.5788 8.80279C-25.8893 10.1267 -26.795 11.1406 -27.7561 12.2158C-28.573 13.1264 -29.4159 14.0677 -29.8817 15.2347C-30.6653 17.1823 -30.3179 19.6885 -28.9131 22.298C-28.4769 23.1053 -27.9779 23.8859 -27.4936 24.6434C-26.7321 25.8334 -25.9447 27.0616 -25.4161 28.3893C-24.3182 31.1442 -24.211 34.4884 -25.0797 38.9192C-25.2904 39.9982 -25.5418 41.0963 -25.7895 42.1524C-26.3477 44.5744 -26.9243 47.0767 -27.0648 49.6135C-27.3014 53.8607 -26.1074 57.5836 -23.7933 59.8258C-20.6733 62.8447 -16.193 63.0054 -11.8605 63.1585C-11.0177 63.1891 -10.1453 63.2197 -9.30981 63.2732C-4.09015 63.6023 1.11843 65.0984 5.75402 67.5931C7.53951 68.5535 10.0976 70.1146 11.7019 72.5442C13.2545 74.8936 13.5909 77.8015 12.5632 79.948C11.8831 81.3676 10.2861 82.6647 8.66698 82.2782C7.29553 81.9492 6.41572 80.6138 5.56549 79.3167C5.42502 79.1062 5.28824 78.8958 5.14777 78.693C1.44003 73.2559 -5.65753 70.1184 -14.0748 70.1184C-14.6958 70.1184 -15.3206 70.1337 -15.9527 70.1681C-20.3036 70.4054 -24.6398 71.316 -28.8355 72.1961C-32.1662 72.8963 -35.6114 73.6194 -39.0345 73.9982C-41.1564 74.2316 -44.2912 74.2393 -46.1395 73.4855C-47.1967 73.0531 -47.9508 72.2496 -48.1616 71.339C-48.5941 69.4565 -46.5129 67.7767 -44.4982 66.1544C-43.3855 65.2591 -42.3357 64.4135 -41.7516 63.5526C-40.5206 61.7427 -39.663 59.6307 -39.2711 57.4459C-38.5281 53.2561 -39.4781 48.9554 -41.8773 45.6457Z" fill="#84E8F4"/>
</g>
</g>
</svg>
